<?xml version="1.0" standalone="no"?><!DOCTYPE svg PUBLIC "-//W3C//DTD SVG 1.1//EN" "http://www.w3.org/Graphics/SVG/1.1/DTD/svg11.dtd"><svg t="1503994850540" class="icon" style="" viewBox="0 0 1024 1024" version="1.1" xmlns="http://www.w3.org/2000/svg" p-id="10206" xmlns:xlink="http://www.w3.org/1999/xlink" width="64" height="64"><defs><style type="text/css"></style></defs><path d="M931.6 585.6l0 79c28.6-60.2 44.8-127.4 44.8-198.4C976.4 211 769.4 4 514.2 4S52 211 52 466.2c0 3.2 0.2 6.4 0.2 9.6l166-206 96.4 0L171.8 485.6l46.4 0 0-54.8 99.2-154.6 0 209.4 0 100 0 82.4-99.2 0 0-82.4L67.6 585.6c43 161 170.6 287.4 332.4 328.6-10.4 26.2-40.6 89.4-90.8 100.6-62.2 14 168.8 3.4 333.6-104.6 126.6-36.6 230.8-125.8 287.4-242.2l-97.6 0 0-82.4-166.2 0 0-87.2 0-12.8L666.4 476l166.2-206.2 94 0-140.4 215.8 46.4 0 0-59 99.2-154 0 213.2L931.8 585.6zM366.2 608c-4.8-11.2-7.2-23.2-7.2-36L359 357.6c0-12.8 2.4-24.8 7.2-36 4.8-11.2 11.4-21 19.6-29.2 8.2-8.2 18-14.8 29.2-19.6 11.2-4.8 23.2-7.2 36-7.2l81.6 0c12.8 0 24.8 2.4 36 7.2 11 4.8 20.6 11.2 28.8 19.2l-88.6 129.4 0-23c0-4.8-1.6-8.8-4.8-12-3.2-3.2-7.2-4.8-12-4.8-4.8 0-8.8 1.6-12 4.8-3.2 3.2-4.8 7.2-4.8 12l0 72L372.6 620C370.2 616.2 368 612.2 366.2 608zM624.4 572c0 12.8-2.4 24.8-7.2 36-4.8 11.2-11.4 21-19.6 29.2-8.2 8.2-18 14.8-29.2 19.6-11.2 4.8-23.2 7.2-36 7.2l-81.6 0c-12.8 0-24.8-2.4-36-7.2-11.2-4.8-21-11.4-29.2-19.6-3.6-3.6-7-7.8-10-12l99.2-144.6 0 50.6c0 4.8 1.6 8.8 4.8 12 3.2 3.2 7.2 4.8 12 4.8 4.8 0 8.8-1.6 12-4.8 3.2-3.2 4.8-7.2 4.8-12l0-99.6 92.6-135.2c6.6 7.4 12 15.8 16 25.2 4.8 11.2 7.2 23.2 7.2 36L624.2 572z" p-id="10207"></path></svg>