<?xml version="1.0" standalone="no"?><!DOCTYPE svg PUBLIC "-//W3C//DTD SVG 1.1//EN" "http://www.w3.org/Graphics/SVG/1.1/DTD/svg11.dtd"><svg t="1547232185632" class="icon" style="" viewBox="0 0 1024 1024" version="1.1" xmlns="http://www.w3.org/2000/svg" p-id="4451" xmlns:xlink="http://www.w3.org/1999/xlink" width="350" height="350"><defs><style type="text/css"></style></defs><path d="M965.824 405.952a180.48 180.48 0 0 1-117.12-85.376 174.464 174.464 0 0 1-16-142.08 22.208 22.208 0 0 0-7.04-23.552 480.576 480.576 0 0 0-153.6-89.216 23.104 23.104 0 0 0-24.32 5.76 182.208 182.208 0 0 1-135.68 57.92 182.208 182.208 0 0 1-133.12-56.64 23.104 23.104 0 0 0-26.88-7.04 478.656 478.656 0 0 0-153.6 89.856 22.208 22.208 0 0 0-7.04 23.552 174.464 174.464 0 0 1-16 141.44A180.48 180.48 0 0 1 58.24 405.952a22.4 22.4 0 0 0-17.28 17.792 455.08 455.08 0 0 0 0 176.512 22.4 22.4 0 0 0 17.28 17.792 180.48 180.48 0 0 1 117.12 84.736c25.408 42.944 31.232 94.592 16 142.08a22.208 22.208 0 0 0 7.04 23.552A480.576 480.576 0 0 0 352 957.632h7.68a23.04 23.04 0 0 0 16.64-7.04 184.128 184.128 0 0 1 266.944 0c6.592 8.96 18.752 11.968 28.8 7.04a479.36 479.36 0 0 0 156.16-88.576 22.208 22.208 0 0 0 7.04-23.552 174.464 174.464 0 0 1 13.44-142.72 180.48 180.48 0 0 1 117.12-84.736 22.4 22.4 0 0 0 17.28-17.792 452.613 452.613 0 0 0 0-176.512 23.04 23.04 0 0 0-17.28-17.792z m-42.88 169.408a218.752 218.752 0 0 0-128 98.112 211.904 211.904 0 0 0-21.76 156.736 415.936 415.936 0 0 1-112 63.68 217.472 217.472 0 0 0-149.12-63.68 221.312 221.312 0 0 0-149.12 63.68 414.592 414.592 0 0 1-112-63.68c12.8-53.12 4.288-109.12-23.68-156.096A218.752 218.752 0 0 0 101.12 575.36a386.176 386.176 0 0 1 0-127.36 218.752 218.752 0 0 0 128-98.112c27.2-47.552 34.944-103.68 21.76-156.8a415.296 415.296 0 0 1 112-63.68A221.44 221.44 0 0 0 512 187.392a218.24 218.24 0 0 0 149.12-57.984 413.952 413.952 0 0 1 112 63.744 211.904 211.904 0 0 0 23.04 156.096 218.752 218.752 0 0 0 128 98.112 386.65 386.65 0 0 1 0 127.36l-1.28 0.64z" fill="#333333" p-id="4452"></path><path d="M512 320.576c-105.984 0-192 85.568-192 191.104a191.552 191.552 0 0 0 192 191.104c106.112 0 192.064-85.568 192.064-191.104a190.72 190.72 0 0 0-56.256-135.168 192.448 192.448 0 0 0-135.744-55.936z m0 318.528c-70.656 0-128-57.088-128-127.424 0-70.4 57.344-127.36 128-127.36 70.72 0 128 56.96 128 127.36 0 33.792-13.44 66.176-37.44 90.112a128.32 128.32 0 0 1-90.496 37.312z" fill="#333333" p-id="4453"></path></svg>