<?xml version="1.0" standalone="no"?><!DOCTYPE svg PUBLIC "-//W3C//DTD SVG 1.1//EN" "http://www.w3.org/Graphics/SVG/1.1/DTD/svg11.dtd"><svg t="1527120676182" class="icon" style="" viewBox="0 0 1756 1024" version="1.1" xmlns="http://www.w3.org/2000/svg" p-id="1829" xmlns:xlink="http://www.w3.org/1999/xlink" width="342.96875" height="200"><defs><style type="text/css"></style></defs><path d="M1002.928571 659.892857c-85.285714 102.392857-173.5 165-307.214286 165s-221.892857-82.5-210.5-182c5.714286-65.392857 51.214286-173.5 247.5-156.392857 102.392857 8.5 150.785714 28.392857 236.107143 56.892857 22.785714-39.785714 39.785714-85.285714 54-130.785714L647.321429 412.607143l0-37 184.892857 0L832.214286 310 607.5 310 607.5 267.285714l224.714286 0L832.214286 170.607143c0 0 2.785714-14.214286 19.892857-14.214286l93.892857 0 0 110.892857 238.892857 0 0 39.785714-241.785714 0L943.107143 372.5l196.285714 0c-17.107143 74-45.5 142.214286-79.607143 199.107143 48.392857 17.107143 244.607143 76.785714 301.5 93.892857L1361.285714 167.785714c0-79.607143-65.392857-142.214286-142.214286-142.214286L533.607143 25.571429c-79.714286 0-142.285714 65.392857-142.285714 142.214286l0 688.392857c0 79.607143 65.392857 142.214286 142.214286 142.214286l688.392857 0c79.607143 0 142.214286-65.392857 142.214286-142.214286l0-34.214286C1315.714286 799.285714 1099.607143 705.392857 1002.928571 659.892857zM525 634.285714c-8.5 37 14.214286 125.214286 156.392857 125.214286 85.285714 0 170.714286-54 238.892857-142.214286-96.714286-48.392857-176.392857-71.107143-267.392857-71.107143C573.321429 549 533.5 597.285714 525 634.285714z" p-id="1830"></path></svg>