<?xml version="1.0" standalone="no"?><!DOCTYPE svg PUBLIC "-//W3C//DTD SVG 1.1//EN" "http://www.w3.org/Graphics/SVG/1.1/DTD/svg11.dtd"><svg t="1527285754479" class="icon" style="" viewBox="0 0 1024 1024" version="1.1" xmlns="http://www.w3.org/2000/svg" p-id="2739" xmlns:xlink="http://www.w3.org/1999/xlink" width="200" height="200"><defs><style type="text/css"></style></defs><path d="M320 512 192 512c-70.4 0-128 57.6-128 128l0 128c0 70.4 57.6 128 128 128l128 0c70.4 0 128-57.6 128-128l0-128C448 569.6 390.4 512 320 512zM384 768c0 35.2-28.8 64-64 64L192 832c-35.2 0-64-28.8-64-64l0-128c0-35.2 28.8-64 64-64l128 0c35.2 0 64 28.8 64 64L384 768zM768 64l-128 0C569.6 64 512 121.6 512 192l0 128c0 70.4 57.6 128 128 128l128 0c70.4 0 128-57.6 128-128L896 192C896 121.6 838.4 64 768 64zM832 320c0 35.2-28.8 64-64 64l-128 0C604.8 384 576 355.2 576 320L576 192c0-35.2 28.8-64 64-64l128 0c35.2 0 64 28.8 64 64L832 320zM768 512l-128 0c-70.4 0-128 57.6-128 128l0 128c0 70.4 57.6 128 128 128l128 0c70.4 0 128-57.6 128-128l0-128C896 569.6 838.4 512 768 512zM832 768c0 35.2-28.8 64-64 64l-128 0c-35.2 0-64-28.8-64-64l0-128c0-35.2 28.8-64 64-64l128 0c35.2 0 64 28.8 64 64L832 768zM320 64 192 64C121.6 64 64 121.6 64 192l0 128c0 70.4 57.6 128 128 128l128 0c70.4 0 128-57.6 128-128L448 192C448 121.6 390.4 64 320 64zM384 320c0 35.2-28.8 64-64 64L192 384C156.8 384 128 355.2 128 320L128 192c0-35.2 28.8-64 64-64l128 0c35.2 0 64 28.8 64 64L384 320z" p-id="2740"></path></svg>