<?xml version="1.0" standalone="no"?><!DOCTYPE svg PUBLIC "-//W3C//DTD SVG 1.1//EN" "http://www.w3.org/Graphics/SVG/1.1/DTD/svg11.dtd"><svg t="1506419860538" class="icon" style="" viewBox="0 0 1024 1024" version="1.1" xmlns="http://www.w3.org/2000/svg" p-id="4662" xmlns:xlink="http://www.w3.org/1999/xlink" width="64" height="64"><defs><style type="text/css"></style></defs><path d="M438.857143 950.857143l512 0 0-365.714286-237.714286 0q-22.820571 0-38.838857-16.018286t-16.018286-38.838857l0-237.714286-219.428571 0 0 658.285714zM585.142857 128l0-36.571429q0-7.460571-5.412571-12.873143t-12.873143-5.412571l-402.285714 0q-7.460571 0-12.873143 5.412571t-5.412571 12.873143l0 36.571429q0 7.460571 5.412571 12.873143t12.873143 5.412571l402.285714 0q7.460571 0 12.873143-5.412571t5.412571-12.873143zM731.428571 512l170.861714 0-170.861714-170.861714 0 170.861714zM1024 585.142857l0 384q0 22.820571-16.018286 38.838857t-38.838857 16.018286l-548.571429 0q-22.820571 0-38.838857-16.018286t-16.018286-38.838857l0-91.428571-310.857143 0q-22.820571 0-38.838857-16.018286t-16.018286-38.838857l0-768q0-22.820571 16.018286-38.838857t38.838857-16.018286l621.714286 0q22.820571 0 38.838857 16.018286t16.018286 38.838857l0 187.465143q11.995429 7.460571 20.553143 16.018286l233.179429 233.179429q16.018286 16.018286 27.428571 43.446857t11.410286 50.322286z" p-id="4663"></path></svg>