<svg width="128" height="128" xmlns="http://www.w3.org/2000/svg"><path d="M54.857 118.857h64V73.143H89.143c-1.902 0-3.52-.668-4.855-2.002-1.335-1.335-2.002-2.954-2.002-4.855V36.57H54.857v82.286zM73.143 16v-4.571a2.2 2.2 0 0 0-.677-1.61 2.198 2.198 0 0 0-1.609-.676H20.571c-.621 0-1.158.225-1.609.676a2.198 2.198 0 0 0-.676 1.61V16a2.2 2.2 0 0 0 .676 1.61c.451.45.988.676 1.61.676h50.285c.622 0 1.158-.226 1.61-.677.45-.45.676-.987.676-1.609zm18.286 48h21.357L91.43 42.642V64zM128 73.143v48c0 1.902-.667 3.52-2.002 4.855-1.335 1.335-2.953 2.002-4.855 2.002H52.57c-1.901 0-3.52-.667-4.854-2.002-1.335-1.335-2.003-2.953-2.003-4.855v-11.429H6.857c-1.902 0-3.52-.667-4.855-2.002C.667 106.377 0 104.759 0 102.857v-96c0-1.902.667-3.52 2.002-4.855C3.337.667 4.955 0 6.857 0h77.714c1.902 0 3.52.667 4.855 2.002 1.335 1.335 2.003 2.953 2.003 4.855V30.29c1 .622 1.856 1.29 2.569 2.003l29.147 29.147c1.335 1.335 2.478 3.145 3.429 5.43.95 2.287 1.426 4.383 1.426 6.291v-.018z"/></svg>