<svg width="128" height="128" xmlns="http://www.w3.org/2000/svg"><path d="M27.429 81.457c0-3.21-.893-5.952-2.679-8.223-1.786-2.272-3.94-3.408-6.464-3.408-2.524 0-4.679 1.136-6.465 3.408-1.785 2.271-2.678 5.012-2.678 8.223 0 3.21.893 5.951 2.678 8.223 1.786 2.271 3.94 3.407 6.465 3.407 2.524 0 4.678-1.136 6.464-3.407 1.786-2.272 2.679-5.013 2.679-8.223zM41.143 40.75c0-3.21-.893-5.951-2.679-8.223-1.785-2.271-3.94-3.407-6.464-3.407-2.524 0-4.679 1.136-6.464 3.407-1.786 2.272-2.679 5.013-2.679 8.223 0 3.21.893 5.951 2.679 8.223 1.785 2.271 3.94 3.407 6.464 3.407 2.524 0 4.679-1.136 6.464-3.407 1.786-2.272 2.679-5.013 2.679-8.223zm30.571 43.704l7.215-34.709c.285-1.575.107-3.044-.536-4.407-.643-1.362-1.56-2.256-2.75-2.68-1.19-.424-2.333-.227-3.429.59-1.095.818-1.81 2.015-2.143 3.59l-7.214 34.708c-2.857.303-5.405 1.62-7.643 3.953-2.238 2.332-3.738 5.315-4.5 8.95-.952 4.664-.476 9.086 1.429 13.265 1.905 4.18 4.69 6.875 8.357 8.087 3.667 1.211 7.143.606 10.429-1.817 3.285-2.423 5.404-5.967 6.357-10.631.762-3.634.619-7.178-.429-10.63-1.047-3.453-2.762-6.21-5.143-8.269zm47.143-2.998c0-3.21-.893-5.952-2.678-8.223-1.786-2.272-3.94-3.408-6.465-3.408-2.524 0-4.678 1.136-6.464 3.408-1.786 2.271-2.679 5.012-2.679 8.223 0 3.21.893 5.951 2.679 8.223 1.786 2.271 3.94 3.407 6.464 3.407 2.524 0 4.679-1.136 6.465-3.407 1.785-2.272 2.678-5.013 2.678-8.223zm-45.714-58.15c0-3.21-.893-5.952-2.679-8.223-1.785-2.272-3.94-3.407-6.464-3.407-2.524 0-4.679 1.135-6.464 3.407-1.786 2.271-2.679 5.012-2.679 8.223 0 3.21.893 5.951 2.679 8.223 1.785 2.271 3.94 3.407 6.464 3.407 2.524 0 4.679-1.136 6.464-3.407 1.786-2.272 2.679-5.013 2.679-8.223zm32 17.445c0-3.21-.893-5.951-2.679-8.223-1.785-2.271-3.94-3.407-6.464-3.407-2.524 0-4.679 1.136-6.464 3.407-1.786 2.272-2.679 5.013-2.679 8.223 0 3.21.893 5.951 2.679 8.223 1.785 2.271 3.94 3.407 6.464 3.407 2.524 0 4.679-1.136 6.464-3.407 1.786-2.272 2.679-5.013 2.679-8.223zM128 81.457c0 15.81-3.357 30.438-10.071 43.885-.905 1.757-2.19 2.635-3.858 2.635H13.93c-1.667 0-2.953-.878-3.858-2.635C3.357 111.956 0 97.327 0 81.457c0-11.025 1.69-21.565 5.071-31.62S13 31.12 18.714 23.851c5.715-7.269 12.524-13.054 20.429-17.354C47.048 2.196 55.333.045 64 .045c8.667 0 16.952 2.15 24.857 6.452 7.905 4.3 14.714 10.085 20.429 17.354 5.714 7.269 10.262 15.93 13.643 25.986 3.38 10.055 5.071 20.595 5.071 31.62z" fill-rule="evenodd"/></svg>