<?xml version="1.0" encoding="UTF-8" standalone="no"?>
<svg width="128px" height="128px" viewBox="0 0 128 128" version="1.1" xmlns="http://www.w3.org/2000/svg" xmlns:xlink="http://www.w3.org/1999/xlink">
    <!-- Generator: Sketch 40 (33762) - http://www.bohemiancoding.com/sketch -->
    <title>documentation</title>
    <desc>Created with Sketch.</desc>
    <defs></defs>
    <g id="Page-1" stroke="none" stroke-width="1" fill="none" fill-rule="evenodd">
        <g id="documentation" fill="#000000">
            <path d="M71.9844055,44.8149883 L115.898635,44.8149883 L71.9844055,9.64246677 L71.9844055,44.8149883 L71.9844055,44.8149883 Z M16.0935673,0.049960918 L79.9688109,0.049960918 L127.875244,38.4199843 L127.875244,115.160031 C127.875244,118.552152 126.19282,121.805341 123.198087,124.203932 C120.203354,126.602524 116.141625,127.950039 111.906433,127.950039 L16.0935673,127.950039 C11.8583753,127.950039 7.7966457,126.602524 4.80191274,124.203932 C1.80717978,121.805341 0.124756348,118.552152 0.124756398,115.160031 L0.124756398,12.8399688 C0.124756398,5.74151449 7.23087719,0.0499610679 16.0935673,0.049960918 L16.0935673,0.049960918 Z M87.9532164,102.370023 L87.9532164,89.5800157 L16.0935673,89.5800157 L16.0935673,102.370023 L87.9532164,102.370023 L87.9532164,102.370023 Z M111.906433,76.7900078 L111.906433,64 L16.0935673,64 L16.0935673,76.7900078 L111.906433,76.7900078 L111.906433,76.7900078 Z" id="Shape"></path>
        </g>
    </g>
</svg>