<?xml version="1.0" standalone="no"?><!DOCTYPE svg PUBLIC "-//W3C//DTD SVG 1.1//EN" "http://www.w3.org/Graphics/SVG/1.1/DTD/svg11.dtd"><svg t="1510826638494" class="icon" style="" viewBox="0 0 1024 1024" version="1.1" xmlns="http://www.w3.org/2000/svg" p-id="1669" xmlns:xlink="http://www.w3.org/1999/xlink" width="64" height="64"><defs><style type="text/css"></style></defs><path d="M743.253333 144.184889H374.499556v734.378667H743.253333a92.017778 92.017778 0 0 0 92.16-91.818667V235.975111a91.989333 91.989333 0 0 0-92.16-91.790222z m-0.398222 293.888c0.398222 20.48-1.507556 26.794667-9.756444 26.794667-3.612444 0.597333-9.415111-1.621333-17.863111-8.874667-12.657778-8.931556-21.504-16.753778-29.155556-21.617778-6.798222-5.888-17.550222-5.205333-24.291556 0-8.874667 4.949333-21.532444 15.872-28.814222 21.617778-8.988444 7.907556-15.018667 8.874667-17.180444 8.874667-8.618667 0-10.837333-7.424-10.496-26.794667l-0.312889-223.601778c0-21.162667 8.561778-24.376889 17.265778-24.376889h103.708444c10.552889 0 17.294222 4.835556 17.294222 24.376889l-0.398222 223.601778zM190.122667 235.975111V786.773333a92.046222 92.046222 0 0 0 92.188444 91.818667h46.08V144.184889h-46.08a92.017778 92.017778 0 0 0-92.188444 91.790222z" fill="" p-id="1670"></path></svg>
