<?xml version="1.0" encoding="UTF-8" standalone="no"?>
<svg width="128px" height="128px" viewBox="0 0 128 128" version="1.1" xmlns="http://www.w3.org/2000/svg" xmlns:xlink="http://www.w3.org/1999/xlink">
    <!-- Generator: Sketch 40 (33762) - http://www.bohemiancoding.com/sketch -->
    <title>drag</title>
    <desc>Created with Sketch.</desc>
    <defs></defs>
    <g id="Page-1" stroke="none" stroke-width="1" fill="none" fill-rule="evenodd">
        <g id="drag" fill="#000000">
            <path d="M73.1367461,29.0802891 L63.927974,29.0802891 L93.6275963,29.0802891 L63.8856496,0.0933291047 L34.3728491,29.0802891 L54.8631055,29.0802891 L54.8631055,56.1146076 L27.2381263,56.1146076 L27.2381263,74.0626598 L54.8631055,74.0626598 L54.8631055,101.19558 L73.1367459,101.19558 L73.1367461,74.0626598 L100.547133,74.0626598 L100.547133,56.1146076 L73.1367461,56.1146076 L73.1367461,29.0802891 L73.1367461,29.0802891 Z M63.8917384,127.906671 L91.4103866,101.19558 L36.5896134,101.19558 L63.8917384,127.906671 L63.8917384,127.906671 Z M0.0423322993,64.9823739 L27.2379777,92.0107121 L27.2379777,38.1665552 L0.0423322993,64.9823739 L0.0423322993,64.9823739 Z M100.547133,38.1665552 L100.547133,92.0105663 L127.957519,64.9822281 L100.547133,38.1665552 L100.547133,38.1665552 Z" id="Shape"></path>
        </g>
    </g>
</svg>