<svg width="128" height="128" xmlns="http://www.w3.org/2000/svg"><g><path d="M106.133 67.2a4.797 4.797 0 0 0-4.8 4.8c0 .187.014.36.027.533h-.027V118.4H9.6V26.667h50.133c2.654 0 4.8-2.147 4.8-4.8 0-2.654-2.146-4.8-4.8-4.8H9.6a9.594 9.594 0 0 0-9.6 9.6V118.4c0 5.307 4.293 9.6 9.6 9.6h91.733c5.307 0 9.6-4.293 9.6-9.6V72.533h-.026c.013-.173.026-.346.026-.533 0-2.653-2.146-4.8-4.8-4.8z"/><path d="M125.16 13.373L114.587 2.8c-3.747-3.747-9.854-3.72-13.6.027l-52.96 52.96a4.264 4.264 0 0 0-.907 1.36L33.813 88.533c-.746 1.76-.226 3.534.907 4.68 1.133 1.147 2.92 1.667 4.693.92l31.4-13.293c.507-.213.96-.52 1.36-.907l52.96-52.96c3.747-3.746 3.774-9.853.027-13.6zM66.107 72.4l-18.32 7.76 7.76-18.32L92.72 24.667l10.56 10.56L66.107 72.4zm52.226-52.227l-8.266 8.267-10.56-10.56 8.266-8.267.027-.026 10.56 10.56-.027.026z"/></g></svg>