<?xml version="1.0" standalone="no"?><!DOCTYPE svg PUBLIC "-//W3C//DTD SVG 1.1//EN" "http://www.w3.org/Graphics/SVG/1.1/DTD/svg11.dtd"><svg t="1555641167698" class="icon" style="" viewBox="0 0 1024 1024" version="1.1" xmlns="http://www.w3.org/2000/svg" p-id="977" xmlns:xlink="http://www.w3.org/1999/xlink" width="200" height="200"><defs><style type="text/css"></style></defs><path d="M702.784 879.008c-55.84 0-148.992 16.48-163.552 54.496l0 0.832c-32.448 0.864-40.032 0-54.496 0-14.528-38.048-107.68-54.528-163.552-54.528l-299.84 0 0-790.496 326.016 0c70.368 0 131.168 36.128 164.608 89.504 33.408-53.344 94.304-89.504 164.704-89.504l326.016 0 0 789.728-299.872-0.032zM484.736 252.864c0-63.744-68.832-109.024-136.288-109.024l-272.608 0 0 681.44 245.344 0c54.08-0.928 139.36 0.544 163.552 40.416l0-30.56c-1.024-37.792-0.032-89.312 0-91.36l0-473.408 0.032-17.536zM948.128 143.776l-272.544 0c-67.488 0-136.32 45.28-136.32 108.928l0 490.464c0.032 2.112 1.056 53.6 0 91.232l0 30.56c24.192-39.776 109.472-41.344 163.552-40.384l245.344 0 0-680.768z" p-id="978"></path></svg>