<?xml version="1.0" encoding="UTF-8" standalone="no"?>
<svg width="128px" height="128px" viewBox="0 0 128 128" version="1.1" xmlns="http://www.w3.org/2000/svg" xmlns:xlink="http://www.w3.org/1999/xlink">
    <!-- Generator: Sketch 40 (33762) - http://www.bohemiancoding.com/sketch -->
    <title>example</title>
    <desc>Created with Sketch.</desc>
    <defs></defs>
    <g id="Page-1" stroke="none" stroke-width="1" fill="none" fill-rule="evenodd">
        <g id="example" fill="#000000">
            <g id="Group">
                <path d="M96.2580039,57.4622309 L127.679374,57.4622309 C124.793738,27.3233659 100.426145,2.95577299 70.2872798,0.0701369863 L70.2872798,31.4915068 C83.432955,34.0565166 93.6929941,44.3165558 96.2580039,57.4622309 L96.2580039,57.4622309 L96.2580039,57.4622309 Z" id="Shape"></path>
                <path d="M57.4622309,31.4915068 L57.4622309,0.0701369863 C27.3233659,2.95577299 2.95577299,27.3233659 0.0701369863,57.4622309 L31.4915068,57.4622309 C34.0565166,44.3165558 44.3165558,34.0565166 57.4622309,31.4915068 L57.4622309,31.4915068 L57.4622309,31.4915068 Z" id="Shape"></path>
                <path d="M70.2872798,96.2580039 L70.2872798,127.679374 C100.746771,124.793738 124.793738,100.426145 128,69.9666536 L96.5786301,69.9666536 C93.6929941,83.432955 83.432955,93.6929941 70.2872798,96.2580039 L70.2872798,96.2580039 L70.2872798,96.2580039 Z" id="Shape"></path>
                <path d="M31.4915068,70.2872798 L0.0701369863,70.2872798 C2.95577299,100.746771 27.3233659,124.793738 57.7828571,128 L57.7828571,96.5786301 C44.3165558,93.6929941 34.0565166,83.432955 31.4915068,70.2872798 L31.4915068,70.2872798 L31.4915068,70.2872798 Z" id="Shape"></path>
            </g>
        </g>
    </g>
</svg>