<?xml version="1.0" standalone="no"?><!DOCTYPE svg PUBLIC "-//W3C//DTD SVG 1.1//EN" "http://www.w3.org/Graphics/SVG/1.1/DTD/svg11.dtd"><svg t="1503994842272" class="icon" style="" viewBox="0 0 1024 1024" version="1.1" xmlns="http://www.w3.org/2000/svg" p-id="10097" xmlns:xlink="http://www.w3.org/1999/xlink" width="64" height="64"><defs><style type="text/css"></style></defs><path d="M625.664 132.608V199.68h309.76v43.008h-309.76V312.32h309.76v43.008h-309.76v68.608h309.76v43.008h-309.76v68.608h309.76v43.008h-309.76v68.608h309.76v43.008h-309.76v68.096h309.76v43.008h-309.76v89.088H1024v-757.76h-398.336zM0 914.944L577.024 1024V0L0 109.056" p-id="10098"></path><path d="M229.376 660.48H139.776l118.272-187.904-112.64-180.736h92.16l65.536 119.808L370.688 291.84h89.088l-112.64 177.664L466.944 660.48H373.248l-70.144-125.44L229.376 660.48z" p-id="10099"></path></svg>