<?xml version="1.0" standalone="no"?><!DOCTYPE svg PUBLIC "-//W3C//DTD SVG 1.1//EN" "http://www.w3.org/Graphics/SVG/1.1/DTD/svg11.dtd"><svg t="1503993826520" class="icon" style="" viewBox="0 0 1024 1024" version="1.1" xmlns="http://www.w3.org/2000/svg" p-id="7878" xmlns:xlink="http://www.w3.org/1999/xlink" width="64" height="64"><defs><style type="text/css"></style></defs><path d="M941.677063 391.710356c9.337669-14.005992 6.224772-32.68133-6.224772-43.575447-14.005992-10.894118-32.68133-7.78122-43.575447 6.224771-1.556449 1.556449-174.300768 205.426673-379.727441 205.426673-199.200878 0-379.727441-205.426673-381.28389-206.982098-10.894118-12.450567-31.124881-14.005992-43.575448-3.112898-12.450567 10.894118-14.005992 31.124881-3.112897 43.575448 3.112897 4.668323 40.46255 46.687322 99.600439 93.375667l-79.369676 82.48155c-12.450567 12.450567-10.894118 32.68133 1.556449 43.575448 3.112897 6.224772 10.894118 9.337669 18.675338 9.337669 7.78122 0 15.562441-3.112897 21.787213-9.337669l85.594447-88.706321c40.46255 28.013007 88.706321 54.469566 141.619438 73.14388L340.959485 707.631586c-4.668323 17.118889 4.669346 34.237779 21.787213 38.906101h9.337669c14.005992 0 26.456558-9.337669 29.568432-23.343661l32.68133-110.494556c24.90011 4.668323 51.356668 7.78122 77.813227 7.78122s52.913117-3.112897 77.813227-7.78122l32.68133 108.938108c3.112897 14.005992 17.118889 23.343661 29.569456 23.343661 3.112897 0 6.224772 0 7.78122-1.556449 17.118889-4.669346 26.456558-21.787212 21.788236-38.906102l-32.68133-108.938108c52.913117-18.675338 101.156888-45.131897 141.619438-73.14388l84.037998 87.150896c6.224772 6.224772 14.005992 9.337669 21.787212 9.337669 7.78122 0 15.562441-3.112897 21.787212-9.337669 12.450567-12.450567 12.450567-31.124881 1.556449-43.575448l-79.369675-82.48155c63.808258-46.688345 101.158934-91.820242 101.158934-91.820242z" p-id="7879"></path></svg>