<?xml version="1.0" standalone="no"?><!DOCTYPE svg PUBLIC "-//W3C//DTD SVG 1.1//EN" "http://www.w3.org/Graphics/SVG/1.1/DTD/svg11.dtd"><svg t="1526631786252" class="icon" style="" viewBox="0 0 1024 1024" version="1.1" xmlns="http://www.w3.org/2000/svg" p-id="2052" xmlns:xlink="http://www.w3.org/1999/xlink" width="200" height="200"><defs><style type="text/css"></style></defs><path d="M405.333333 874.666667h213.333334v-42.666667H405.333333v42.666667z m554.666667-213.333334h-42.666667V256c0-6.4-2.133333-10.666667-6.4-14.933333l-192-192c-4.266667-4.266667-8.533333-6.4-14.933333-6.4H256c-12.8 0-21.333333 8.533333-21.333333 21.333333v64H128c-12.8 0-21.333333 8.533333-21.333333 21.333333v512H64c-12.8 0-21.333333 8.533333-21.333333 21.333334v277.333333c0 12.8 8.533333 21.333333 21.333333 21.333333h896c12.8 0 21.333333-8.533333 21.333333-21.333333V682.666667c0-12.8-8.533333-21.333333-21.333333-21.333334zM725.333333 115.2l119.466667 119.466667H725.333333V115.2zM277.333333 85.333333h405.333334v170.666667c0 12.8 8.533333 21.333333 21.333333 21.333333h170.666667v384h-149.333334c-4.266667 0-8.533333 0-10.666666 2.133334L612.266667 725.333333h-200.533334l-102.4-61.866666c-2.133333-2.133333-6.4-2.133333-10.666666-2.133334h-21.333334V85.333333zM149.333333 170.666667h85.333334v490.666666H149.333333V170.666667z m789.333334 768H85.333333V704h206.933334l102.4 61.866667c2.133333 2.133333 6.4 2.133333 10.666666 2.133333h213.333334c4.266667 0 8.533333 0 10.666666-2.133333l102.4-61.866667H938.666667v234.666667zM392.533333 275.2l34.133334-17.066667 34.133333 17.066667c6.4 2.133333 12.8 2.133333 19.2 0l34.133333-17.066667 34.133334 17.066667c0 2.133333 2.133333 2.133333 6.4 2.133333s6.4 0 8.533333-2.133333l32-17.066667 34.133333 17.066667 19.2-38.4-42.666666-21.333333c-6.4-2.133333-12.8-2.133333-19.2 0l-32 17.066666-34.133334-17.066666c-6.4-2.133333-12.8-2.133333-19.2 0l-32 17.066666-34.133333-17.066666c-6.4-2.133333-12.8-2.133333-19.2 0l-32 17.066666-32-17.066666-19.2 38.4 42.666667 21.333333c4.266667 2.133333 12.8 2.133333 17.066666 0z m0 128l34.133334-17.066667 34.133333 17.066667c6.4 2.133333 12.8 2.133333 19.2 0l34.133333-17.066667 4.266667 2.133334 27.733333 14.933333c2.133333 2.133333 4.266667 2.133333 8.533334 2.133333s6.4 0 8.533333-2.133333l32-17.066667 34.133333 17.066667c6.4 2.133333 12.8 2.133333 19.2 0l34.133334-17.066667 34.133333 17.066667c2.133333 2.133333 4.266667 2.133333 8.533333 2.133333s6.4 0 8.533334-2.133333l32-17.066667 34.133333 17.066667 19.2-38.4-42.666667-21.333333c-6.4-2.133333-12.8-2.133333-19.2 0l-32 17.066666-34.133333-17.066666c-6.4-2.133333-12.8-2.133333-19.2 0l-32 17.066666-34.133333-17.066666c-2.133333-2.133333-4.266667-2.133333-8.533334-2.133334s-6.4 0-10.666666 2.133334l-10.666667 6.4-21.333333 10.666666-34.133334-17.066666c-6.4-2.133333-12.8-2.133333-19.2 0l-32 17.066666-34.133333-17.066666c-6.4-2.133333-12.8-2.133333-19.2 0l-32 17.066666-32-17.066666-19.2 38.4 42.666667 21.333333c4.266667 2.133333 12.8 2.133333 17.066666 0z" p-id="2053"></path></svg>