<svg width="128" height="128" xmlns="http://www.w3.org/2000/svg"><path d="M84.068 23.784c-1.02 0-1.877-.32-2.572-.96a8.588 8.588 0 0 1-1.738-2.237 11.524 11.524 0 0 1-1.042-2.621c-.232-.895-.348-1.641-.348-2.238V0h.278c.834 0 1.622.085 2.363.256.742.17 1.645.575 2.711 1.214 1.066.64 2.363 1.535 3.892 2.686 1.53 1.15 3.453 2.664 5.77 4.54 2.502 2.045 4.494 3.771 5.977 5.178 1.483 1.406 2.618 2.6 3.406 3.58.787.98 1.274 1.812 1.46 2.494.185.682.277 1.278.277 1.79v2.046H84.068zM127.3 84.01c.278.682.464 1.535.556 2.558.093 1.023-.37 2.003-1.39 2.94-.463.427-.88.832-1.25 1.215-.372.384-.696.704-.974.96a6.69 6.69 0 0 1-.973.767l-11.816-10.741a44.331 44.331 0 0 0 1.877-1.535 31.028 31.028 0 0 1 1.737-1.406c1.112-.938 2.317-1.343 3.615-1.215 1.297.128 2.363.405 3.197.83.927.427 1.923 1.173 2.989 2.239 1.065 1.065 1.876 2.195 2.432 3.388zM78.23 95.902c2.038 0 3.752-.511 5.143-1.534l-26.969 25.83H18.037c-1.761 0-3.684-.47-5.77-1.407a24.549 24.549 0 0 1-5.838-3.709 21.373 21.373 0 0 1-4.518-5.306c-1.204-2.003-1.807-4.07-1.807-6.202V16.495c0-1.79.44-3.665 1.32-5.626A18.41 18.41 0 0 1 5.04 5.562a21.798 21.798 0 0 1 5.213-3.964C12.198.533 14.237 0 16.37 0h53.24v15.984c0 1.62.278 3.367.834 5.242a16.704 16.704 0 0 0 2.572 5.179c1.159 1.577 2.665 2.898 4.518 3.964 1.853 1.066 4.078 1.598 6.673 1.598h20.295v42.325L85.458 92.45c1.02-1.364 1.529-2.856 1.529-4.476 0-2.216-.857-4.113-2.572-5.69-1.714-1.577-3.776-2.366-6.186-2.366H26.1c-2.409 0-4.448.789-6.116 2.366-1.668 1.577-2.502 3.474-2.502 5.69 0 2.217.834 4.092 2.502 5.626 1.668 1.535 3.707 2.302 6.117 2.302h52.13zM26.1 47.951c-2.41 0-4.449.789-6.117 2.366-1.668 1.577-2.502 3.473-2.502 5.69 0 2.216.834 4.092 2.502 5.626 1.668 1.534 3.707 2.302 6.117 2.302h52.13c2.409 0 4.47-.768 6.185-2.302 1.715-1.534 2.572-3.41 2.572-5.626 0-2.217-.857-4.113-2.572-5.69-1.714-1.577-3.776-2.366-6.186-2.366H26.1zm52.407 64.063l1.807-1.663 3.476-3.196a479.75 479.75 0 0 0 4.587-4.284 500.757 500.757 0 0 1 5.004-4.667c3.985-3.666 8.48-7.758 13.485-12.276l11.677 10.741-13.485 12.404-5.004 4.603-4.587 4.22a179.46 179.46 0 0 0-3.267 3.068c-.88.853-1.367 1.322-1.46 1.407-.463.341-.973.703-1.529 1.087-.556.383-1.112.703-1.668.959-.556.256-1.413.575-2.572.959a83.5 83.5 0 0 1-3.545 1.087 72.2 72.2 0 0 1-3.475.895c-1.112.256-1.946.426-2.502.511-1.112.17-1.854.043-2.224-.383-.371-.426-.464-1.151-.278-2.174.092-.511.278-1.279.556-2.302.278-1.023.602-2.067.973-3.132l1.042-3.005c.325-.938.58-1.577.765-1.918a10.157 10.157 0 0 1 2.224-2.941z"/></svg>