<?xml version="1.0" standalone="no"?><!DOCTYPE svg PUBLIC "-//W3C//DTD SVG 1.1//EN" "http://www.w3.org/Graphics/SVG/1.1/DTD/svg11.dtd"><svg t="1506330387278" class="icon" style="" viewBox="0 0 1069 1024" version="1.1" xmlns="http://www.w3.org/2000/svg" p-id="1447" xmlns:xlink="http://www.w3.org/1999/xlink" width="66.8125" height="64"><defs><style type="text/css"></style></defs><path d="M746.027944 190.083832q-11.241517 0-18.906188-7.664671t-12.774451-17.884232-7.664671-20.9501-2.55489-17.884232l0-125.700599 2.043912 0q9.197605 0 17.373253 2.043912t19.928144 9.708583 28.61477 21.461078 42.411178 36.279441q27.592814 24.526946 43.944112 41.389222t25.037924 28.61477 10.730539 19.928144 2.043912 14.307385l0 16.351297-150.227545 0zM1063.856287 671.42515q3.065868 8.175649 4.087824 20.439122t-10.219561 23.50499q-5.10978 5.10978-9.197605 9.708583t-7.153693 7.664671q-4.087824 4.087824-7.153693 6.131737l-86.866267-85.844311q6.131737-5.10978 13.796407-12.263473t12.774451-11.241517q12.263473-11.241517 26.570858-9.708583t23.50499 6.642715q10.219561 5.10978 21.972056 17.884232t17.884232 27.081836zM703.105788 766.467066q22.483034 0 37.812375-12.263473l-198.259481 206.43513-282.05988 0q-19.417166 0-42.411178-11.241517t-42.922156-29.636727-33.213573-42.411178-13.285429-49.56487l0-695.952096q0-21.461078 9.708583-44.966068t26.570858-42.411178 38.323353-31.680639 44.966068-12.774451l391.409182 0 0 127.744511q0 19.417166 6.131737 41.9002t18.906188 41.389222 33.213573 31.680639 49.053892 12.774451l149.205589 0 0 338.267465-140.007984 145.117764q11.241517-16.351297 11.241517-35.768463 0-26.570858-18.906188-45.477046t-45.477046-18.906188l-383.233533 0q-26.570858 0-44.966068 18.906188t-18.39521 45.477046 18.39521 44.966068 44.966068 18.39521l383.233533 0zM319.872255 383.233533q-26.570858 0-44.966068 18.906188t-18.39521 45.477046 18.39521 44.966068 44.966068 18.39521l383.233533 0q26.570858 0 45.477046-18.39521t18.906188-44.966068-18.906188-45.477046-45.477046-18.906188l-383.233533 0zM705.149701 895.233533l13.285429-13.285429 25.548902-25.548902q15.329341-15.329341 33.724551-34.235529t36.790419-37.301397q43.944112-43.944112 99.129741-98.107784l85.844311 85.844311-99.129741 99.129741-36.790419 36.790419-33.724551 33.724551q-14.307385 14.307385-24.015968 24.526946t-10.730539 11.241517q-5.10978 4.087824-11.241517 8.686627t-12.263473 7.664671-18.906188 7.664671-26.05988 8.686627-25.548902 7.153693-18.39521 4.087824q-12.263473 2.043912-16.351297-3.065868t-2.043912-17.373253q1.021956-6.131737 4.087824-18.39521t7.153693-25.037924 7.664671-24.015968 5.620758-15.329341q6.131737-13.285429 16.351297-23.50499z" p-id="1448"></path></svg>