<?xml version="1.0" standalone="no"?><!DOCTYPE svg PUBLIC "-//W3C//DTD SVG 1.1//EN" "http://www.w3.org/Graphics/SVG/1.1/DTD/svg11.dtd"><svg t="1545920083553" class="icon" style="" viewBox="0 0 1098 1024" version="1.1" xmlns="http://www.w3.org/2000/svg" p-id="5856" xmlns:xlink="http://www.w3.org/1999/xlink" width="375.29296875" height="350"><defs><style type="text/css"></style></defs><path d="M387.638958 625.365762c-172.41927 0-312.676732-140.208266-312.676732-312.676731S215.170492 0 387.638958 0s312.676732 140.269761 312.676732 312.689031-140.269761 312.676732-312.676732 312.676731z m0-554.17932c-133.160956 0-241.502588 108.341633-241.502588 241.502589s108.341633 241.490289 241.502588 241.490289 241.490289-108.329334 241.490289-241.490289S520.799914 71.186442 387.638958 71.186442z" p-id="5857"></path><path d="M739.684695 1024a35.593221 35.593221 0 0 1-35.593221-35.593221c0-174.485497-141.967019-316.452516-316.452516-316.452516s-316.452516 141.967019-316.452516 316.452516a35.593221 35.593221 0 0 1-71.186442 0c0-213.743811 173.895146-387.638958 387.638958-387.638958s387.626659 173.895146 387.626659 387.638958a35.593221 35.593221 0 0 1-35.580922 35.593221zM664.722468 635.610805a35.593221 35.593221 0 0 1 0-71.186442c133.160956 0 241.490289-108.329334 241.49029-241.49029S797.883424 81.431485 664.722468 81.431485a35.593221 35.593221 0 1 1 0-71.174143c172.394672 0.036897 312.676732 140.245163 312.676732 312.676731S837.11714 635.610805 664.722468 635.610805z" p-id="5858"></path><path d="M1063.098428 1019.252597a35.593221 35.593221 0 0 1-35.593221-35.593221c0-203.203594-149.174215-345.109117-362.819635-345.109117a35.593221 35.593221 0 0 1 0-71.186442c118.562077 0 227.297277 39.860964 306.24437 112.265004a384.281339 384.281339 0 0 1 93.718156 132.078646c22.593209 52.479708 34.043551 110.334066 34.043551 171.951909a35.593221 35.593221 0 0 1-35.593221 35.593221z" p-id="5859"></path></svg>