<?xml version="1.0" standalone="no"?><!DOCTYPE svg PUBLIC "-//W3C//DTD SVG 1.1//EN" "http://www.w3.org/Graphics/SVG/1.1/DTD/svg11.dtd"><svg t="1526477165024" class="icon" style="" viewBox="0 0 1024 1024" version="1.1" xmlns="http://www.w3.org/2000/svg" p-id="1911" xmlns:xlink="http://www.w3.org/1999/xlink" width="200" height="200"><defs><style type="text/css"></style></defs><path d="M841.142857 566.857143l0 274.285714q0 14.857143-10.857143 25.714286t-25.714286 10.857143l-219.428571 0 0-219.428571-146.285714 0 0 219.428571-219.428571 0q-14.857143 0-25.714286-10.857143t-10.857143-25.714286l0-274.285714q0-0.571429 2.857143-1.714286t2.857143-1.714286l328.571429-270.857143 328.571429 270.857143q0.571429 1.142857 0.571429 3.428571zm127.428571-39.428571l-35.428571 42.285714q-4.571429 5.142857-12 6.285714l-1.714286 0q-7.428571 0-12-4l-395.428571-329.714286-395.428571 329.714286q-6.857143 4.571429-13.714286 4-7.428571-1.142857-12-6.285714l-35.428571-42.285714q-4.571429-5.714286-4-13.428571t6.285714-12.285714l410.857143-342.285714q18.285714-14.857143 43.428571-14.857143t43.428571 14.857143l139.428571 116.571429 0-111.428571q0-8 5.142857-13.142857t13.142857-5.142857l109.714286 0q8 0 13.142857 5.142857t5.142857 13.142857l0 233.142857 125.142857 104q5.714286 4.571429 6.285714 12.285714t-4 13.428571z" p-id="1912"></path></svg>