<svg width="128" height="128" xmlns="http://www.w3.org/2000/svg"><path d="M115.147.062a13 13 0 0 1 4.94.945c1.55.63 2.907 1.526 4.069 2.688a13.148 13.148 0 0 1 2.761 4.069c.678 1.55 1.017 3.245 1.017 5.086v102.3c0 3.681-1.187 6.733-3.56 9.155-2.373 2.422-5.352 3.633-8.937 3.633H12.992c-3.875 0-7-1.26-9.373-3.779-2.373-2.518-3.56-5.667-3.56-9.445V12.704c0-3.39 1.163-6.345 3.488-8.863C5.872 1.32 8.972.062 12.847.062h102.3zM81.434 109.047c1.744 0 3.003-.412 3.778-1.235.775-.824 1.163-1.914 1.163-3.27 0-1.26-.388-2.325-1.163-3.197-.775-.872-2.034-1.307-3.778-1.307H72.57c.097-.194.145-.485.145-.872V27.09h9.01c1.743 0 2.954-.436 3.633-1.308.678-.872 1.017-1.938 1.017-3.197 0-1.26-.34-2.325-1.017-3.197-.679-.872-1.89-1.308-3.633-1.308H46.268c-1.743 0-2.954.436-3.632 1.308-.678.872-1.018 1.938-1.018 3.197 0 1.26.34 2.325 1.018 3.197.678.872 1.889 1.308 3.632 1.308h8.138v72.075c0 .193.024.339.073.436.048.096.072.242.072.436H46.56c-1.744 0-3.003.435-3.778 1.307-.775.872-1.163 1.938-1.163 3.197 0 1.356.388 2.446 1.163 3.27.775.823 2.034 1.235 3.778 1.235h34.875z"/></svg>