<?xml version="1.0" standalone="no"?><!DOCTYPE svg PUBLIC "-//W3C//DTD SVG 1.1//EN" "http://www.w3.org/Graphics/SVG/1.1/DTD/svg11.dtd"><svg t="1509677746926" class="icon" style="" viewBox="0 0 1024 1024" version="1.1" xmlns="http://www.w3.org/2000/svg" p-id="1419" xmlns:xlink="http://www.w3.org/1999/xlink" width="32" height="32"><defs><style type="text/css"></style></defs><path d="M666.298182 824.087273c-12.567273-30.72-54.225455-83.316364-123.578182-156.392728-18.618182-19.549091-17.454545-34.443636-10.705455-78.894545v-5.12c4.421818-30.487273 12.101818-48.407273 114.501819-64.698182 52.130909-8.145455 65.629091 12.567273 84.712727 41.425455l6.283636 9.541818a101.003636 101.003636 0 0 0 51.432728 41.658182c9.076364 4.189091 20.247273 9.309091 35.374545 17.92C861.090909 649.774545 861.090909 672.814545 861.090909 723.549091v5.818182a215.272727 215.272727 0 0 1-41.425454 139.636363 472.436364 472.436364 0 0 1-152.203637 88.203637c27.927273-52.363636 6.516364-114.501818 0-132.421818zM512 40.96a468.014545 468.014545 0 0 1 203.869091 46.545455 434.501818 434.501818 0 0 0-102.865455 82.618181c-7.447273 10.24-13.730909 19.781818-19.781818 28.625455-19.549091 29.556364-29.090909 42.821818-46.545454 44.916364a200.843636 200.843636 0 0 1-33.745455 0c-34.210909-2.327273-80.756364-5.12-95.650909 35.374545-9.541818 25.832727-11.170909 95.650909 19.549091 131.956364a32.349091 32.349091 0 0 1 2.56 28.625454 56.087273 56.087273 0 0 1-16.523636 25.832727 151.505455 151.505455 0 0 1-23.272728-23.272727 151.272727 151.272727 0 0 0-66.56-52.829091c-10.007273-2.792727-21.178182-5.12-31.883636-7.447272-30.254545-6.283636-64.232727-13.498182-72.145455-30.487273a119.156364 119.156364 0 0 1-5.818181-46.545455 175.476364 175.476364 0 0 0-11.17091-74.007272 70.981818 70.981818 0 0 0-44.450909-39.563637A469.643636 469.643636 0 0 1 512 40.96zM0 512A512 512 0 1 0 512 0 512 512 0 0 0 0 512z" p-id="1420"></path></svg>