<?xml version="1.0" encoding="UTF-8" standalone="no"?>
<svg width="128px" height="128px" viewBox="0 0 128 128" version="1.1" xmlns="http://www.w3.org/2000/svg" xmlns:xlink="http://www.w3.org/1999/xlink">
    <!-- Generator: Sketch 40 (33762) - http://www.bohemiancoding.com/sketch -->
    <title>language</title>
    <desc>Created with Sketch.</desc>
    <defs></defs>
    <g id="Page-1" stroke="none" stroke-width="1" fill="none" fill-rule="evenodd">
        <g id="language" fill="#000000">
            <g id="Group">
                <path d="M84.7422439,36.8 C87.1399024,44 90.3367805,49.6 95.9313171,55.2 C100.726634,50.4 103.923512,44 106.321171,36.8 L84.7422439,36.8 L84.7422439,36.8 Z M31.9937561,76.8 L52.7734634,76.8 L42.3836098,48.8 L31.9937561,76.8 Z" id="Shape"></path>
                <path d="M111.915707,0 L16.0093659,0 C7.21795122,0 0.0249756098,7.2 0.0249756098,16 L0.0249756098,112 C0.0249756098,120.8 7.21795122,128 16.0093659,128 L111.915707,128 C120.707122,128 127.900098,120.8 127.900098,112 L127.900098,16 C127.900098,7.2 121.506341,0 111.915707,0 L111.915707,0 Z M72.7539512,103.2 C71.1555122,104.8 69.5570732,104.8 67.9586341,104.8 C67.1594146,104.8 65.5609756,104.8 64.7617561,104 C63.9625366,103.2 63.1633171,104 63.1633171,103.2 C63.1633171,102.4 62.3640976,101.6 61.564878,100 C60.7656585,98.4 60.7656585,97.6 59.966439,96 L56.769561,87.2 L28.796878,87.2 L25.6,96 C24.001561,99.2 23.2023415,101.6 22.403122,103.2 C21.6039024,104.8 20.0054634,104.8 17.6078049,104.8 C16.0093659,104.8 14.4109268,104 12.8124878,103.2 C11.2140488,101.6 10.4148293,100.8 10.4148293,99.2 C10.4148293,98.4 10.4148293,97.6 11.2140488,96 C12.0132683,94.4 12.0132683,93.6 12.8124878,92 L30.3953171,47.2 C31.1945366,45.6 31.1945366,44 31.9937561,42.4 C32.7929756,40.8 33.5921951,39.2 34.3914146,38.4 C35.1906341,37.6 35.9898537,36 37.5882927,35.2 C39.1867317,34.4 40.7851707,34.4 42.3836098,34.4 C43.9820488,34.4 45.5804878,34.4 47.1789268,35.2 C48.7773659,36 49.5765854,36.8 50.3758049,38.4 C51.1750244,39.2 51.9742439,40.8 52.7734634,42.4 C53.5726829,44 54.3719024,45.6 55.171122,48 L72.7539512,92 C74.3523902,95.2 75.1516098,97.6 75.1516098,99.2 C74.3523902,100 73.5531707,101.6 72.7539512,103.2 L72.7539512,103.2 Z M116.711024,72 C107.91961,68.8 101.525854,64.8 95.9313171,60 C90.3367805,65.6 83.1438049,69.6 74.3523902,72 L71.9547317,68 C80.7461463,65.6 87.939122,62.4 93.5336585,56.8 C87.939122,51.2 83.1438049,44 81.5453659,36 L73.5531707,36 L73.5531707,32.8 L95.1320976,32.8 C93.5336585,30.4 91.9352195,27.2 90.3367805,24.8 L92.734439,24 C94.332878,26.4 96.7305366,29.6 98.3289756,32.8 L118.309463,32.8 L118.309463,36.8 L110.317268,36.8 C107.91961,44.8 103.923512,52 99.1281951,56.8 C104.722732,61.6 111.116488,65.6 119.907902,68 L116.711024,72 L116.711024,72 Z" id="Shape"></path>
            </g>
        </g>
    </g>
</svg>