<?xml version="1.0" standalone="no"?><!DOCTYPE svg PUBLIC "-//W3C//DTD SVG 1.1//EN" "http://www.w3.org/Graphics/SVG/1.1/DTD/svg11.dtd"><svg t="1509704884729" class="icon" style="" viewBox="0 0 1088 1024" version="1.1" xmlns="http://www.w3.org/2000/svg" p-id="6279" xmlns:xlink="http://www.w3.org/1999/xlink" width="34" height="32"><defs><style type="text/css"></style></defs><path d="M729.6 294.4c19.2 57.6 44.8 102.4 89.6 147.2 38.4-38.4 64-89.6 83.2-147.2h-172.8zM307.2 614.4h166.4L390.4 390.4z" p-id="6280"></path><path d="M947.2 0h-768C108.8 0 51.2 57.6 51.2 128v768c0 70.4 57.6 128 128 128h768c70.4 0 128-57.6 128-128V128c0-70.4-51.2-128-128-128zM633.6 825.6c-12.8 12.8-25.6 12.8-38.4 12.8-6.4 0-19.2 0-25.6-6.4s-12.8 0-12.8-6.4-6.4-12.8-12.8-25.6-6.4-19.2-12.8-32l-25.6-70.4H281.6L256 768c-12.8 25.6-19.2 44.8-25.6 57.6-6.4 12.8-19.2 12.8-38.4 12.8-12.8 0-25.6-6.4-38.4-12.8-12.8-12.8-19.2-19.2-19.2-32 0-6.4 0-12.8 6.4-25.6s6.4-19.2 12.8-32l140.8-358.4c6.4-12.8 6.4-25.6 12.8-38.4s12.8-25.6 19.2-32 12.8-19.2 25.6-25.6c12.8-6.4 25.6-6.4 38.4-6.4 12.8 0 25.6 0 38.4 6.4 12.8 6.4 19.2 12.8 25.6 25.6 6.4 6.4 12.8 19.2 19.2 32 6.4 12.8 12.8 25.6 19.2 44.8l140.8 352c12.8 25.6 19.2 44.8 19.2 57.6-6.4 6.4-12.8 19.2-19.2 32zM985.6 576c-70.4-25.6-121.6-57.6-166.4-96-44.8 44.8-102.4 76.8-172.8 96l-19.2-32c70.4-19.2 128-44.8 172.8-89.6-44.8-44.8-83.2-102.4-96-166.4h-64v-25.6h172.8c-12.8-19.2-25.6-44.8-38.4-64l19.2-6.4c12.8 19.2 32 44.8 44.8 70.4h160v32h-64c-19.2 64-51.2 121.6-89.6 160 44.8 38.4 96 70.4 166.4 89.6l-25.6 32z" p-id="6281"></path></svg>
