<?xml version="1.0" standalone="no"?><!DOCTYPE svg PUBLIC "-//W3C//DTD SVG 1.1//EN" "http://www.w3.org/Graphics/SVG/1.1/DTD/svg11.dtd"><svg t="1503994776084" class="icon" style="" viewBox="0 0 1024 1024" version="1.1" xmlns="http://www.w3.org/2000/svg" p-id="9662" xmlns:xlink="http://www.w3.org/1999/xlink" width="64" height="64"><defs><style type="text/css"></style></defs><path d="M818.246893 412.326906l-45.988404 0 0-70.991868c0-152.307871-123.463939-275.778974-275.778974-275.778974s-275.78102 123.471103-275.78102 275.778974l0 70.991868-45.987381 0c-25.379017 0-45.988404 20.566408-45.988404 45.987381l0 455.407074c0 25.428136 20.560268 45.988404 45.988404 45.988404l643.535779 0c25.37697 0 45.988404-20.560268 45.988404-45.988404L864.235296 458.314287C864.190271 432.893314 843.623863 412.326906 818.246893 412.326906L818.246893 412.326906zM680.331823 412.326906 312.62516 412.326906l0-70.991868c0-101.55393 82.344426-183.853331 183.854355-183.853331 101.509928 0 183.853331 82.343403 183.853331 183.853331L680.332846 412.326906 680.331823 412.326906zM680.331823 412.326906" p-id="9663"></path></svg>