<?xml version="1.0" encoding="UTF-8" standalone="no"?>
<svg width="128px" height="128px" viewBox="0 0 128 128" version="1.1" xmlns="http://www.w3.org/2000/svg" xmlns:xlink="http://www.w3.org/1999/xlink">
    <!-- Generator: Sketch 40 (33762) - http://www.bohemiancoding.com/sketch -->
    <title>lock</title>
    <desc>Created with Sketch.</desc>
    <defs></defs>
    <g id="Page-1" stroke="none" stroke-width="1" fill="none" fill-rule="evenodd">
        <g id="lock" fill="#000000">
            <path d="M119.880057,49.6735687 L111.892926,49.6735687 L111.892926,39.5205417 C111.892926,17.7379635 90.4500711,0.0795264715 63.9964422,0.0795264715 C37.5428134,0.0795264715 16.0996029,17.7379635 16.0996029,39.5205417 L16.0996029,49.6735687 L8.11264938,49.6735687 C3.70489609,49.6735687 0.125518155,52.6149097 0.125518155,56.2505349 L0.125518155,121.381379 C0.125518155,125.018029 3.69636524,127.958492 8.11264938,127.958492 L119.880057,127.958492 C124.287455,127.958492 127.867189,125.018029 127.867189,121.381379 L127.867188,56.2505349 C127.859369,52.6149097 124.287455,49.6735687 119.880057,49.6735687 L119.880057,49.6735687 L119.880057,49.6735687 Z M95.9273722,49.6735687 L32.0651567,49.6735687 L32.0651567,39.5205417 C32.0651567,24.9966277 46.3664953,13.2264341 63.9964422,13.2264341 C81.626389,13.2264341 95.9275499,25.0029208 95.9275499,39.5205417 L95.9275499,49.6735687 L95.9273722,49.6735687 L95.9273722,49.6735687 Z" id="Shape"></path>
        </g>
    </g>
</svg>