<svg width="128" height="128" xmlns="http://www.w3.org/2000/svg"><path d="M0 20.967v59.59c0 11.59 8.537 20.966 19.075 20.966h28.613l1 26.477L76.8 101.523h32.125c10.538 0 19.075-9.377 19.075-20.966v-59.59C128 9.377 119.463 0 108.925 0h-89.85C8.538 0 0 9.377 0 20.967zm82.325 33.1c0-5.524 4.013-9.935 9.037-9.935 5.026 0 9.038 4.41 9.038 9.934 0 5.524-4.025 9.934-9.038 9.934-5.024 0-9.037-4.41-9.037-9.934zm-27.613 0c0-5.524 4.013-9.935 9.038-9.935s9.037 4.41 9.037 9.934c0 5.524-4.025 9.934-9.037 9.934-5.025 0-9.038-4.41-9.038-9.934zm-27.1 0c0-5.524 4.013-9.935 9.038-9.935s9.038 4.41 9.038 9.934c0 5.524-4.026 9.934-9.05 9.934-5.013 0-9.025-4.41-9.025-9.934z"/></svg>