<?xml version="1.0" standalone="no"?><!DOCTYPE svg PUBLIC "-//W3C//DTD SVG 1.1//EN" "http://www.w3.org/Graphics/SVG/1.1/DTD/svg11.dtd"><svg t="1526336812824" class="icon" style="" viewBox="0 0 1024 1024" version="1.1" xmlns="http://www.w3.org/2000/svg" p-id="1932" xmlns:xlink="http://www.w3.org/1999/xlink" width="200" height="200"><defs><style type="text/css"></style></defs><path d="M557.697536 804.585472q0-18.855936-13.427712-32.283648t-32.283648-13.427712-32.283648 13.427712-13.427712 32.283648 13.427712 32.283648 32.283648 13.427712 32.283648-13.427712 13.427712-32.283648zm118.849536-91.42272l0-402.259968q0-7.428096-5.428224-12.85632t-12.85632-5.428224l-292.552704 0q-7.428096 0-12.85632 5.428224t-5.428224 12.85632l0 402.259968q0 7.428096 5.428224 12.85632t12.85632 5.428224l292.552704 0q7.428096 0 12.85632-5.428224t5.428224-12.85632zm-109.707264-484.540416q0-9.142272-9.142272-9.142272l-91.42272 0q-9.142272 0-9.142272 9.142272t9.142272 9.142272l91.42272 0q9.142272 0 9.142272-9.142272zm164.560896-9.142272l0 585.105408q0 29.712384-21.712896 51.42528t-51.42528 21.712896l-292.552704 0q-29.712384 0-51.42528-21.712896t-21.712896-51.42528l0-585.105408q0-29.712384 21.712896-51.42528t51.42528-21.712896l292.552704 0q29.712384 0 51.42528 21.712896t21.712896 51.42528z" p-id="1933"></path></svg>