<svg width="128" height="128" xmlns="http://www.w3.org/2000/svg"><path d="M.002 9.2c0 5.044 3.58 9.133 7.998 9.133 4.417 0 7.997-4.089 7.997-9.133 0-5.043-3.58-9.132-7.997-9.132S.002 4.157.002 9.2zM31.997.066h95.981V18.33H31.997V.066zm0 45.669c0 5.044 3.58 9.132 7.998 9.132 4.417 0 7.997-4.088 7.997-9.132 0-3.263-1.524-6.278-3.998-7.91-2.475-1.63-5.524-1.63-7.998 0-2.475 1.632-4 4.647-4 7.91zM63.992 36.6h63.986v18.265H63.992V36.6zm-31.995 82.2c0 5.043 3.58 9.132 7.998 9.132 4.417 0 7.997-4.089 7.997-9.132 0-5.044-3.58-9.133-7.997-9.133s-7.998 4.089-7.998 9.133zm31.995-9.131h63.986v18.265H63.992V109.67zm0-27.404c0 5.044 3.58 9.133 7.998 9.133 4.417 0 7.997-4.089 7.997-9.133 0-3.263-1.524-6.277-3.998-7.909-2.475-1.631-5.524-1.631-7.998 0-2.475 1.632-4 4.646-4 7.91zm31.995-9.13h31.991V91.4H95.987V73.135z"/></svg>