<?xml version="1.0" standalone="no"?><!DOCTYPE svg PUBLIC "-//W3C//DTD SVG 1.1//EN" "http://www.w3.org/Graphics/SVG/1.1/DTD/svg11.dtd"><svg t="1542520684166" class="icon" style="" viewBox="0 0 1024 1024" version="1.1" xmlns="http://www.w3.org/2000/svg" p-id="1891" xmlns:xlink="http://www.w3.org/1999/xlink" width="200" height="200"><defs><style type="text/css"></style></defs><path d="M945.7 666c-8.2-9.3-37.7-14-71.7-14.4 0.8-43.9 10.2-131.6-7.3-146.8-10-8.7-167-20.6-318.2-12.2l4.4-64.5c46-0.8 85.8-5.1 95.1-14.4 23-23 26.9-172.9 0-203.6-26.9-30.7-230.5-23-261.3 15.4-30.7 38.4-26.9 172.9 0 188.2 10.6 6.1 50 10.9 95.2 13.2l3.6 69.4c-163.7 10.4-322.1 25.3-328.3 36-9.2 16-0.8 84.8 4.4 121.2-37.2 3.6-71.1 11.8-81.1 24.3C57 707.1 60 810 80.5 821.7c20.5 11.8 182.1 17.6 199.7 0 17.6-17.6 20.6-132.2 0-155.7-8.5-9.7-40.2-14.4-76.1-14.5-3.3-26.2-7.8-76.5 3.8-88.3 7.6-7.7 141-17.1 279.8-22.4l5.9 113.5c-34.3 3.9-64.4 11.8-73.8 23.5-23.5 29.4-20.6 132.2 0 143.9 20.6 11.8 182.1 17.6 199.7 0 17.6-17.6 20.6-132.2 0-155.7-9-10.3-43.8-14.9-82-14.5l7.7-112.7c131.6-3.9 268.6-4.1 275.1 6 10.1 15.6 15.1 72.4 11.6 109.7-36.9 3.6-76.2 10.9-86.2 23.3-23.5 29.4-20.6 132.2 0 143.9 20.6 11.8 182.1 17.6 199.7 0 17.9-17.6 20.8-132.2 0.3-155.7z" fill="#1D1D1B" p-id="1892"></path></svg>