<?xml version="1.0" standalone="no"?><!DOCTYPE svg PUBLIC "-//W3C//DTD SVG 1.1//EN" "http://www.w3.org/Graphics/SVG/1.1/DTD/svg11.dtd"><svg t="1542517719120" class="icon" style="" viewBox="0 0 1024 1024" version="1.1" xmlns="http://www.w3.org/2000/svg" p-id="3042" xmlns:xlink="http://www.w3.org/1999/xlink" width="200" height="200"><defs><style type="text/css"></style></defs><path d="M777.64 965.502H246.361c-5.523 0-10-4.478-10-10 0-20.864 2.346-41.624 6.98-61.838-54.104-23.893-82.626-56.116-82.626-93.524V377.073c0-85.095 33.138-165.096 93.308-225.267 60.171-60.171 140.172-93.308 225.266-93.308h65.422c85.095 0 165.096 33.137 225.266 93.308 60.172 60.171 93.31 140.172 93.31 225.267V800.14c0 37.408-28.522 69.633-82.626 93.523a276.787 276.787 0 0 1 6.979 61.839c0 5.522-4.478 10-10 10z m-521.085-20h510.892a256.28 256.28 0 0 0-8.201-55.175 10 10 0 0 1 5.893-11.8c64.59-26.367 78.147-57.182 78.147-78.389V377.073c0-79.752-31.058-154.731-87.45-211.125-56.394-56.393-131.372-87.45-211.124-87.45H479.29c-79.752 0-154.729 31.057-211.124 87.45-56.394 56.394-87.451 131.372-87.451 211.125V800.14c0 21.207 13.558 52.021 78.148 78.39a9.999 9.999 0 0 1 5.892 11.8 256.055 256.055 0 0 0-8.2 55.172z" fill="#322B2C" p-id="3043"></path><path d="M512 932.954c-89.93 0-173.819-11.438-236.213-32.209-72.01-23.974-110.072-58.761-110.072-100.605V377.073c0-83.759 32.617-162.504 91.844-221.731 59.226-59.227 137.972-91.844 221.73-91.844h65.422c83.759 0 162.504 32.617 221.73 91.844s91.844 137.972 91.844 221.731V800.14c0 41.846-38.062 76.634-110.072 100.605-62.394 20.771-146.282 32.209-236.213 32.209z" fill="#322B2C" p-id="3044"></path><path d="M544.711 68.498c170.421 0 308.574 138.153 308.574 308.575V800.14c0 85.21-170.644 127.815-341.285 127.815-170.643 0-341.286-42.605-341.286-127.815V377.073c0-170.421 138.153-308.575 308.574-308.575h65.423m0-10h-65.422c-43.003 0-84.725 8.424-124.006 25.039-37.938 16.046-72.006 39.015-101.26 68.269-29.254 29.254-52.223 63.323-68.269 101.26-16.615 39.282-25.039 81.004-25.039 124.007V800.14c0 44.203 39.245 80.633 113.493 105.351 62.89 20.936 147.339 32.465 237.792 32.465s174.902-11.529 237.792-32.465c74.248-24.719 113.493-61.146 113.493-105.351V377.073c0-43.003-8.424-84.725-25.039-124.007-16.046-37.937-39.016-72.005-68.271-101.26-29.254-29.254-63.321-52.223-101.259-68.269-39.28-16.615-81.002-25.039-124.005-25.039z" fill="#322B2C" p-id="3045"></path><path d="M777.64 955.502H246.361c0-146.707 118.93-265.639 265.638-265.639 146.709 0 265.641 118.932 265.641 265.639z" fill="#F7BE95" p-id="3046"></path><path d="M506.185 955.502l-101.293-222.67c41.675-27.177 47.83-42.969 101.293-42.969 53.462 0 71.249 15.794 112.924 42.969l-112.924 222.67z" fill="#F4D490" p-id="3047"></path><path d="M755.152 534.349v-45.106c-18.388 6.138-243.151-25.966-243.151-127.942 0 101.977-224.767 134.08-243.153 127.941v45.107c-32.649 0-59.116 26.469-59.116 59.116 0 32.649 26.467 59.118 59.116 59.118a59.44 59.44 0 0 0 8.947-0.677c25.091 67.721 100.121 116.872 188.784 116.872h90.843c88.662 0 163.691-49.151 188.782-116.872 2.92 0.442 5.907 0.677 8.948 0.677 32.649 0 59.115-26.469 59.115-59.118 0.003-32.649-26.464-59.116-59.115-59.116z" fill="#F9E5E5" p-id="3048"></path><path d="M396.898 514.816c-28.918 0-53.301 19.778-60.341 46.52-11.564-3.081-14.036-11.489-14.036-25.104h-14.538c0 14.95 3.082 34.084 26.559 39.489-0.011 0.496 14.501 1.488 14.501 1.488 0-26.387 21.468-47.854 47.854-47.854 26.388 0 47.855 21.469 47.855 47.854h14.539c0.001-34.402-27.989-62.393-62.393-62.393zM622.918 514.816c28.919 0 53.301 19.778 60.342 46.52 11.564-3.081 14.035-11.489 14.035-25.104h14.539c0 14.951-3.082 34.084-26.561 39.489 0.013 0.496-14.499 1.488-14.499 1.488 0-26.387-21.47-47.854-47.856-47.854-26.386 0-47.854 21.469-47.854 47.854h-14.539c0-34.402 27.991-62.393 62.393-62.393zM512 702.686c-34.405 0-62.396-27.99-62.396-62.395h14.539c0 26.388 21.47 47.854 47.857 47.854s47.856-21.468 47.856-47.854h14.538c0.002 34.403-27.989 62.395-62.394 62.395z" fill="#322B2C" p-id="3049"></path></svg>