<svg width="128" height="128" xmlns="http://www.w3.org/2000/svg"><path d="M108.8 44.322H89.6v-5.36c0-9.04-3.308-24.163-25.6-24.163-23.145 0-25.6 16.881-25.6 24.162v5.361H19.2v-5.36C19.2 15.281 36.798 0 64 0c27.202 0 44.8 15.281 44.8 38.961v5.361zm-32 39.356c0-5.44-5.763-9.832-12.8-9.832-7.037 0-12.8 4.392-12.8 9.832 0 3.682 2.567 6.808 6.407 8.477v11.205c0 2.718 2.875 4.962 6.4 4.962 3.524 0 6.4-2.244 6.4-4.962V92.155c3.833-1.669 6.393-4.795 6.393-8.477zM128 64v49.201c0 8.158-8.645 14.799-19.2 14.799H19.2C8.651 128 0 121.359 0 113.201V64c0-8.153 8.645-14.799 19.2-14.799h89.6c10.555 0 19.2 6.646 19.2 14.799z"/></svg>