<svg width="128" height="128" xmlns="http://www.w3.org/2000/svg"><path d="M95.648 118.762c0 5.035-3.563 9.121-7.979 9.121H7.98c-4.416 0-7.979-4.086-7.979-9.121C0 100.519 15.408 83.47 31.152 76.75c-9.099-6.43-15.216-17.863-15.216-30.987v-9.128c0-20.16 14.293-36.518 31.893-36.518s31.894 16.358 31.894 36.518v9.122c0 13.137-6.123 24.556-15.216 30.993 15.738 6.726 31.141 23.769 31.141 42.012z"/><path d="M106.032 118.252h15.867c3.376 0 6.101-3.125 6.101-6.972 0-13.957-11.787-26.984-23.819-32.123 6.955-4.919 11.638-13.66 11.638-23.704v-6.985c0-15.416-10.928-27.926-24.39-27.926-1.674 0-3.306.193-4.89.561 1.936 4.713 3.018 9.974 3.018 15.526v9.121c0 13.137-3.056 23.111-11.066 30.993 14.842 4.41 27.312 23.42 27.541 41.509z"/></svg>