<?xml version="1.0" standalone="no"?><!DOCTYPE svg PUBLIC "-//W3C//DTD SVG 1.1//EN" "http://www.w3.org/Graphics/SVG/1.1/DTD/svg11.dtd"><svg t="1503994743287" class="icon" style="" viewBox="0 0 1024 1024" version="1.1" xmlns="http://www.w3.org/2000/svg" p-id="9554" xmlns:xlink="http://www.w3.org/1999/xlink" width="64" height="64"><defs><style type="text/css"></style></defs><path d="M780.108 761.059c54.451 60.351 87.706 138.983 87.706 225.358 0 12.015-0.659 23.882-1.902 35.581l-71.955 0c1.589-11.675 2.695-23.493 2.695-35.581 0-71.578-29.094-136.386-76.189-185.002C658.778 836.02 587.76 855.95 512 855.95c-75.689 0-146.65-19.888-208.294-54.432-47.129 48.604-76.358 113.305-76.358 184.9 0 12.088 1.105 23.906 2.695 35.581l-71.955 0c-1.243-11.699-1.902-23.567-1.902-35.581 0-86.366 33.19-165.055 87.587-225.446-96.765-78.277-158.75-197.84-158.75-331.998C85.023 193.163 276.188 2.001 512 2.001s426.977 191.162 426.977 426.972C938.977 563.184 876.94 682.785 780.108 761.059zM512 295.787c-196.511 0-355.814-80.302-355.814 122.251 0 202.551 159.303 366.749 355.814 366.749s355.814-164.199 355.814-366.749C867.814 215.485 708.511 295.787 512 295.787zM678.047 500.136c-26.2 0-47.442-21.24-47.442-47.442 0-26.197 21.242-47.442 47.442-47.442 26.202 0 47.442 21.244 47.442 47.442C725.488 478.896 704.249 500.136 678.047 500.136zM654.326 630.601c0 32.754-63.722 59.302-142.326 59.302s-142.326-26.549-142.326-59.302c0-8.445 4.376-16.446 12.017-23.719 21.98 20.927 71.979 35.579 130.309 35.579s108.329-14.652 130.309-35.579C649.949 614.155 654.326 622.156 654.326 630.601zM345.953 500.136c-26.202 0-47.442-21.24-47.442-47.442 0-26.197 21.24-47.442 47.442-47.442 26.2 0 47.442 21.244 47.442 47.442C393.395 478.896 372.153 500.136 345.953 500.136z" p-id="9555"></path></svg>