<svg width="128" height="128" xmlns="http://www.w3.org/2000/svg"><path d="M104.185 95.254c8.161 7.574 13.145 17.441 13.145 28.28 0 1.508-.098 2.998-.285 4.466h-10.784c.238-1.465.403-2.948.403-4.465 0-8.983-4.36-17.115-11.419-23.216C86 104.66 75.355 107.162 64 107.162c-11.344 0-21.98-2.495-31.22-6.83-7.064 6.099-11.444 14.218-11.444 23.203 0 1.517.165 3 .403 4.465H10.955a35.444 35.444 0 0 1-.285-4.465c0-10.838 4.974-20.713 13.127-28.291C9.294 85.42.003 70.417.003 53.58.003 23.99 28.656.001 64 .001s63.997 23.988 63.997 53.58c0 16.842-9.299 31.85-23.812 41.673zM64 36.867c-29.454 0-53.33-10.077-53.33 15.342 0 25.418 23.876 46.023 53.33 46.023 29.454 0 53.33-20.605 53.33-46.023 0-25.419-23.876-15.342-53.33-15.342zm24.888 25.644c-3.927 0-7.111-2.665-7.111-5.953 0-3.288 3.184-5.954 7.11-5.954 3.928 0 7.111 2.666 7.111 5.954s-3.183 5.953-7.11 5.953zm-3.556 16.372c0 4.11-9.55 7.442-21.332 7.442-11.781 0-21.332-3.332-21.332-7.442 0-1.06.656-2.064 1.8-2.976 3.295 2.626 10.79 4.465 19.532 4.465 8.743 0 16.237-1.84 19.531-4.465 1.145.912 1.801 1.916 1.801 2.976zm-46.22-16.372c-3.927 0-7.11-2.665-7.11-5.953 0-3.288 3.183-5.954 7.11-5.954 3.927 0 7.111 2.666 7.111 5.954s-3.184 5.953-7.11 5.953z"/></svg>