<?xml version="1.0" encoding="UTF-8" standalone="no"?>
<svg width="128px" height="128px" viewBox="0 0 128 128" version="1.1" xmlns="http://www.w3.org/2000/svg" xmlns:xlink="http://www.w3.org/1999/xlink">
    <!-- Generator: Sketch 40 (33762) - http://www.bohemiancoding.com/sketch -->
    <title>peoples</title>
    <desc>Created with Sketch.</desc>
    <defs></defs>
    <g id="Page-1" stroke="none" stroke-width="1" fill="none" fill-rule="evenodd">
        <g id="peoples" fill="#000000">
            <g id="Group">
                <path d="M95.648,118.761809 C95.648,123.797081 92.0853334,127.883398 87.6693334,127.883398 L7.97866662,127.883398 C3.56266662,127.883398 0,123.797081 0,118.761809 C0,100.518632 15.408,83.4697178 31.152,76.7495665 C22.0533334,70.3199116 15.936,58.8872623 15.936,45.7632781 L15.936,36.635234 C15.936,16.4747801 30.2293334,0.116602099 47.8293334,0.116602099 C65.4293334,0.116602099 79.7226668,16.4747801 79.7226668,36.635234 L79.7226668,45.7568227 C79.7226668,58.8937179 73.6000001,70.3134563 64.5066668,76.7495666 C80.2453334,83.4761733 95.648,100.518632 95.648,118.761809 L95.648,118.761809 L95.648,118.761809 Z" id="Shape"></path>
                <path d="M106.032,118.251827 L121.898667,118.251827 C125.274667,118.251827 128,115.127376 128,111.279912 C128,97.3231711 116.213333,84.2960189 104.181333,79.1574595 C111.136,74.2383862 115.818667,65.4976707 115.818667,55.4529489 L115.818667,48.4681229 C115.818667,33.0524444 104.890667,20.5417305 91.4293333,20.5417305 C89.7546666,20.5417305 88.1226666,20.7353948 86.5386666,21.103357 C88.4746666,25.8158551 89.5573333,31.0770686 89.5573333,36.6287785 L89.5573333,45.7503672 C89.5573333,58.8872624 86.5013333,68.860974 78.4906666,76.7431111 C93.3333334,81.1522017 105.802667,100.163581 106.032,118.251827 L106.032,118.251827 Z" id="Shape"></path>
            </g>
        </g>
    </g>
</svg>