<?xml version="1.0" encoding="UTF-8" standalone="no"?>
<svg width="128px" height="128px" viewBox="0 0 128 128" version="1.1" xmlns="http://www.w3.org/2000/svg" xmlns:xlink="http://www.w3.org/1999/xlink">
    <!-- Generator: Sketch 40 (33762) - http://www.bohemiancoding.com/sketch -->
    <title>people</title>
    <desc>Created with Sketch.</desc>
    <defs></defs>
    <g id="Page-1" stroke="none" stroke-width="1" fill="none" fill-rule="evenodd">
        <g id="people" fill="#000000">
            <path d="M104.184806,95.2544627 C112.34608,102.827922 117.330436,112.695467 117.330436,123.534682 C117.330436,125.042447 117.231663,126.531639 117.045358,127.999749 L106.260534,127.999749 C106.498698,126.534651 106.664468,125.051608 106.664468,123.534682 C106.664468,114.552345 102.303775,106.419576 95.2450398,100.318745 C85.9995129,104.661333 75.3551288,107.162353 64,107.162353 C52.6555129,107.162353 42.0196721,104.666604 32.7802904,100.331671 C25.716459,106.430996 21.3355316,114.550337 21.3355316,123.534808 C21.3355316,125.051733 21.5011522,126.534776 21.739466,127.999875 L10.9546417,127.999875 C10.7683372,126.531765 10.6695644,125.042447 10.6695644,123.534808 C10.6695644,112.696722 15.644178,102.822024 23.7973583,95.2435451 C9.29393911,85.420549 0.00344730679,70.4165647 0.00344730679,53.581051 C0.00344730679,23.9890824 28.6558126,0.000125490196 64,0.000125490196 C99.3441874,0.000125490196 127.996553,23.9890824 127.996553,53.5809255 C127.996553,70.4230902 118.698267,85.4318431 104.184806,95.2544627 L104.184806,95.2544627 Z M64,36.8673882 C34.5463607,36.8673882 10.6695644,26.7902745 10.6695644,52.2086902 C10.6695644,77.6268549 34.5463607,98.2320941 64,98.2320941 C93.4536393,98.2320941 117.330436,77.6267294 117.330436,52.2086902 C117.330436,26.7902745 93.4536393,36.8673882 64,36.8673882 L64,36.8673882 Z M88.8876066,62.5111843 C84.9606745,62.5111843 81.7768618,59.8457725 81.7768618,56.5576784 C81.7768618,53.2702118 84.9606745,50.6041725 88.8876066,50.6041725 C92.8148384,50.6041725 95.9983513,53.2700863 95.9983513,56.5576784 C95.9982014,59.8457725 92.8148384,62.5111843 88.8876066,62.5111843 L88.8876066,62.5111843 Z M85.3322342,78.8832627 C85.3322342,82.9935686 75.7813958,86.3250824 64,86.3250824 C52.2186042,86.3250824 42.6677658,82.9934431 42.6677658,78.8832627 C42.6677658,77.823498 43.3236534,76.819451 44.4689087,75.9067608 C47.7633349,78.5328941 55.2573302,80.3715765 64,80.3715765 C72.7426698,80.3715765 80.2366651,78.5328941 83.5310913,75.9067608 C84.6761967,76.819451 85.3322342,77.823498 85.3322342,78.8832627 L85.3322342,78.8832627 Z M39.1123934,62.5111843 C35.1851616,62.5111843 32.0016487,59.8457725 32.0016487,56.5576784 C32.0016487,53.2702118 35.1851616,50.6041725 39.1123934,50.6041725 C43.0393255,50.6041725 46.2231382,53.2700863 46.2231382,56.5576784 C46.2231382,59.8457725 43.0393255,62.5111843 39.1123934,62.5111843 L39.1123934,62.5111843 Z" id="Shape"></path>
        </g>
    </g>
</svg>