<?xml version="1.0" standalone="no"?><!DOCTYPE svg PUBLIC "-//W3C//DTD SVG 1.1//EN" "http://www.w3.org/Graphics/SVG/1.1/DTD/svg11.dtd"><svg t="1510727502091" class="icon" style="" viewBox="0 0 1024 1024" version="1.1" xmlns="http://www.w3.org/2000/svg" p-id="1640" xmlns:xlink="http://www.w3.org/1999/xlink" width="32" height="32"><defs><style type="text/css"></style></defs><path d="M765.184 873.941333c0 33.28-28.501333 60.288-63.829333 60.288L63.829333 934.229333C28.501333 934.229333 0 907.221333 0 873.941333c0-120.576 123.264-233.258667 249.216-277.674667-72.789333-42.496-121.728-118.058667-121.728-204.8L127.488 331.136c0-133.248 114.346667-241.365333 255.146667-241.365333s255.146667 108.117333 255.146667 241.365333l0 60.288c0 86.826667-48.981333 162.304-121.728 204.842667C641.962667 640.725333 765.184 753.365333 765.184 873.941333L765.184 873.941333z" p-id="1641"></path><path d="M848.256 870.570667l126.933333 0c27.008 0 48.810667-20.650667 48.810667-46.08 0-92.245333-94.293333-178.346667-190.549333-212.309333 55.637333-32.512 93.098667-90.282667 93.098667-156.672L926.549333 409.344c0-101.888-87.424-184.576-195.114667-184.576-13.397333 0-26.453333 1.28-39.125333 3.712 15.488 31.146667 24.149333 65.92 24.149333 102.613333l0 60.288c0 86.826667-24.448 152.746667-88.533333 204.842667C746.666667 625.365333 846.421333 751.018667 848.256 870.570667z" p-id="1642"></path></svg>