<?xml version="1.0" standalone="no"?><!DOCTYPE svg PUBLIC "-//W3C//DTD SVG 1.1//EN" "http://www.w3.org/Graphics/SVG/1.1/DTD/svg11.dtd"><svg t="1526289741637" class="icon" style="" viewBox="0 0 1024 1024" version="1.1" xmlns="http://www.w3.org/2000/svg" p-id="6631" xmlns:xlink="http://www.w3.org/1999/xlink" width="200" height="200"><defs><style type="text/css"></style></defs><path d="M640 384l-192 320-127.04-92.672L320 608l-7.552-2.912 5.888 4.32L128 768l0 64 768 0 0-64-96-288L640 384zM288 416c52.992 0 96-42.976 96-96s-43.008-96-96-96-96 42.976-96 96S235.008 416 288 416zM992 64 32 64C14.336 64 0 78.336 0 96l0 832c0 17.696 14.336 32 32 32l960 0c17.696 0 32-14.304 32-32L1024 96C1024 78.336 1009.696 64 992 64zM960 864c0 17.696-14.304 32-32 32L96 896c-17.664 0-32-14.304-32-32L64 160c0-17.664 14.336-32 32-32l832 0c17.696 0 32 14.336 32 32L960 864z" p-id="6632"></path></svg>