<?xml version="1.0" standalone="no"?><!DOCTYPE svg PUBLIC "-//W3C//DTD SVG 1.1//EN" "http://www.w3.org/Graphics/SVG/1.1/DTD/svg11.dtd"><svg t="1526986868571" class="icon" style="" viewBox="0 0 1024 1024" version="1.1" xmlns="http://www.w3.org/2000/svg" p-id="1496" xmlns:xlink="http://www.w3.org/1999/xlink" width="200" height="200"><defs><style type="text/css"></style></defs><path d="M706.62144 298.03008 337.78688 298.03008l0 412.09344 328.9088 0 0 0c27.88352 1.58208 41.1904-10.94144 39.92576-37.55008L706.62144 298.03008 706.62144 298.03008zM680.00256 422.55872l-75.10016 0 0 192.0256c1.5872 43.08992-21.55008 63.85152-69.39136 62.26944l-28.05248 0 0-31.37536 26.14272 0c19.328 1.5872 28.20096-8.71424 26.61376-30.89408L560.21504 422.55872l-26.61376 0c-19.01568 109.32736-73.984 190.43328-164.92544 243.3536l0-31.37024c33.5872-27.8784 60.27776-59.25888 80.08704-94.11072 19.80416-34.85696 33.35168-74.14272 40.64256-117.87264L364.40064 422.55872l0-30.89408 195.82464 0 0-67.0208 44.68224 0 0 67.0208 75.10016 0L680.00768 422.55872 680.00256 422.55872z" p-id="1497"></path><path d="M522.24 84.43392c-231.38816 0-418.96448 187.57632-418.96448 418.95936 0 231.38816 187.57632 418.95936 418.96448 418.95936 231.38304 0 418.96448-187.5712 418.96448-418.95936C941.19936 272.01536 753.62304 84.43392 522.24 84.43392L522.24 84.43392zM681.9072 741.01248l-392.6016 0L289.3056 265.70752l465.80224 0 0 402.59072 0 0C756.6848 718.3616 732.28288 742.59456 681.9072 741.01248L681.9072 741.01248z" p-id="1498"></path></svg>