<?xml version="1.0" standalone="no"?><!DOCTYPE svg PUBLIC "-//W3C//DTD SVG 1.1//EN" "http://www.w3.org/Graphics/SVG/1.1/DTD/svg11.dtd"><svg t="1545919588539" class="icon" style="" viewBox="0 0 1024 1024" version="1.1" xmlns="http://www.w3.org/2000/svg" p-id="3811" xmlns:xlink="http://www.w3.org/1999/xlink" width="350" height="350"><defs><style type="text/css"></style></defs><path d="M954.850084 782.308379c-17.891486-78.56024-54.456263-132.559085-109.153002-172.5898-13.585413-9.945513-28.062126-18.659989-44.231387-26.037003-5.776563-2.505054-11.553127-5.010107-17.328667-7.516184 0-0.089028 0-0.179079 0-0.268106 7.14677-8.009418 17.150612-13.162788 23.795962-21.742187 15.597233-20.138666 28.756951-39.83731 36.988426-68.177775 9.380648-32.299637 5.296633-75.758428-5.17179-103.072517-22.153556-57.789171-74.738192-107.520829-153.642263-106.024755-4.055362 0.268106-8.106632 0.537236-12.157901 0.805342-9.469676 1.699712-18.649755 2.705622-27.160593 5.368264-33.119305 10.360975-61.267389 29.020964-80.18218 54.220902-15.561417 20.72502-27.15343 43.61945-33.627888 74.083276-8.975419 42.22059 3.776 87.407746 18.882046 113.540939 5.189186 8.972349 11.498892 16.766872 17.590634 24.694425 5.497201 7.158027 19.433608 22.318308 27.414373 26.037003 0 0.089028 0 0.179079 0 0.268106-6.635117 2.863211-13.277398 5.726421-19.916609 8.589632-14.412244 6.592139-28.477588 15.099906-40.86778 24.157189-46.922682 34.304294-83.800591 81.678254-102.94358 144.674007-3.492544 11.491729-5.408173 22.980387-8.020674 35.700083-4.842285 23.595394-4.137227 52.810786-4.137227 81.33033 0 15.557324-0.75827 29.629831 5.690606 38.115086 7.115048 9.362228 21.176298 8.324596 37.503149 8.320503 28.019147 0 56.045457 0 84.064604 0 93.452415 0 186.933483 0 280.385898 0 26.723641 0 53.458539 0 80.18218 0 11.67797 0.004093 28.287253 2.007727 36.991496-1.87879 15.561417-6.950296 13.449313-21.788236 13.449313-44.288692C959.24416 839.749626 960.558086 807.382451 954.850084 782.308379zM576.408939 479.513098c-4.770653-14.017248-8.323573-36.912701-4.665253-55.512315 1.574868-8.016581 2.824325-15.998369 5.489014-23.059182 13.557784-35.983539 37.201274-61.122079 71.870888-75.154677 7.390317-2.991124 15.660678-4.539386 24.140817-6.262634 3.932566-0.379647 7.865131-0.759293 11.796674-1.13894 60.788481-0.197498 97.423867 31.766494 115.764584 75.723635 11.258415 26.983561 12.609179 65.787332 1.096984 93.943602-14.192234 34.718733-40.036855 60.518329-76.262918 72.307839-8.509814 2.76702-17.558911 3.397377-27.431769 5.124717-17.627473 3.074012-41.020252-4.106528-52.122101-8.824993C611.644441 542.017664 589.097936 516.795213 576.408939 479.513098zM925.231509 875.580692c-156.473751 0-312.99048 0-469.460138 0-0.022513-25.559119-1.36509-52.748365 3.00545-74.2951 16.889669-83.249029 58.498322-135.369084 119.685893-172.407652 18.031679-10.915607 39.352263-17.947767 62.029752-23.819498 54.123688-14.016225 116.373451 0.060375 153.846924 19.850094 65.542762 34.611286 109.446691 89.61604 127.338177 173.824931C926.384775 820.889069 925.485289 848.902076 925.231509 875.580692zM356.840174 740.971925C213.738989 715.666586 105.044428 590.695317 105.044428 440.331727c0-168.625512 136.697335-305.322847 305.322847-305.322847 82.686211 0 157.681252 32.883945 212.661448 86.268806l39.098483-17.890462C599.073124 136.415926 509.61058 94.588285 410.367275 94.588285c-190.948937 0-345.743442 154.794505-345.743442 345.743442 0 162.576749 112.221898 298.92002 263.421528 335.855234L356.840174 740.971925zM431.17723 274.607288c0-11.45182-9.283434-20.735253-20.735253-20.735253s-20.735253 9.283434-20.735253 20.735253l0 154.204058-85.554538 85.554538c-8.097422 8.097422-8.097422 21.22644 0 29.323862 8.097422 8.097422 21.22644 8.097422 29.323862 0l91.62786-91.62786c2.409886-2.409886 4.085038-5.270027 5.061272-8.306176 0.027629-0.086981 0.062422-0.169869 0.090051-0.25685 0.161682-0.525979 0.291642-1.059122 0.409322-1.594311 0.030699-0.1361 0.071631-0.268106 0.099261-0.405229 0.11154-0.554632 0.190335-1.11438 0.255827-1.675152 0.014326-0.121773 0.039909-0.240477 0.052189-0.363274 0.068562-0.690732 0.105401-1.38351 0.104377-2.076288 0-0.005117 0.001023-0.00921 0.001023-0.014326L431.17723 274.607288z" p-id="3812"></path></svg>