<?xml version="1.0" encoding="UTF-8" standalone="no"?>
<svg width="128px" height="128px" viewBox="0 0 128 128" version="1.1" xmlns="http://www.w3.org/2000/svg" xmlns:xlink="http://www.w3.org/1999/xlink">
    <!-- Generator: Sketch 40 (33762) - http://www.bohemiancoding.com/sketch -->
    <title>qq</title>
    <desc>Created with Sketch.</desc>
    <defs></defs>
    <g id="Page-1" stroke="none" stroke-width="1" fill="none" fill-rule="evenodd">
        <g id="qq" fill="#000000">
            <polygon id="Shape" points="18.4479796 57.5449021 18.203785 56.8005931 18.0055073 55.8334003 17.8740178 55.3037958 17.8740178 54.6371894 17.8740178 53.8417602 17.8740178 53.1219889 18.1098639 52.2631708 18.3498843 51.3552774 18.6671287 50.4023983 19.0949911 49.3411445 19.6564301 48.2389946 20.4495409 47.1347999 20.4495409 46.3618636 20.5267648 45.6380026 20.6499057 44.6544514 20.9901085 43.5482119 21.3031786 42.3540458 21.5536346 41.8060381 21.8416591 41.2948368 22.2131689 40.726381 22.6180729 40.3031064 22.6180729 39.5260805 22.6180729 38.6529488 22.6180729 37.5732917 22.8518318 36.1664659 23.087678 34.5326667 23.5071918 32.5778331 24.0853279 30.5432522 24.5152775 29.4247438 24.9410527 28.2080849 25.4085707 27.0732181 25.9679225 25.8565591 26.5377101 24.5253911 27.1930701 23.27806 27.9298283 21.946892 28.8586028 20.6177687 29.2885524 19.8550565 29.7456346 19.231391 30.7411975 17.8245651 31.7659801 16.4218289 32.9285136 14.9781966 34.1745325 13.5734155 35.5269952 12.1890826 36.9378976 10.7658983 38.645173 9.23024973 39.7283954 8.29577385 41.0495511 7.28768499 42.389491 6.39819482 43.8379618 5.54346633 45.23008 4.78279888 46.7996046 4.15299894 48.4672245 3.37801785 50.1244087 2.84636855 51.7774186 2.2942712 53.5640051 1.74626346 55.3485045 1.32912324 57.2248377 0.981506396 59.1283037 0.680920062 61.0067241 0.435543463 62.8830573 0.184032449 64.8846186 0.0777025897 66.7880846 0.0777025897 68.7562517 0.0777025897 70.7974685 0.0777025897 72.7677228 0.321034384 74.7484127 0.552097348 76.7666711 0.758622652 78.6409172 1.20030053 80.61952 1.61335114 82.477069 2.0877459 84.5120245 2.61735039 86.3737478 3.26350877 88.15616 4.00168337 90.059626 4.78279888 91.7961213 5.63548256 93.4846125 6.58427207 95.1397096 7.62916743 96.5652219 8.6004498 97.2268433 9.14845754 97.9197717 9.54923931 99.2430145 10.6493444 100.357544 11.712643 101.469986 12.8127481 102.553209 14.0273622 103.446502 15.2051699 104.51094 16.4218289 105.251873 17.7284593 106.003241 18.8899085 106.800526 20.2415246 107.462147 21.4172875 108.57459 23.9058152 109.121419 25.1919975 109.549281 26.3841188 109.977143 27.6784804 110.361176 28.8951393 110.628329 29.9420795 110.974793 31.1730521 111.582149 33.3712175 111.970356 35.295379 112.222899 37.1561515 112.439961 38.6529488 112.782251 40.9329063 112.859475 41.2948368 113.13289 41.7058426 113.869648 42.8856951 114.343427 43.6852139 114.762941 44.5174495 115.297247 45.4089845 115.76894 46.4784175 116.075748 47.5723881 116.40969 48.7726887 116.662233 50.0036613 116.777025 50.6089236 116.883469 51.3552774 116.883469 52.0034806 116.777025 52.6455493 116.777025 53.4450681 116.585009 54.2200492 116.23437 55.720936 115.831554 56.4795587 115.533094 57.3322424 115.533094 57.5449021 115.675019 57.8086819 116.075748 58.4323475 117.820592 60.9617712 119.1981 62.8613951 119.857635 64.1291742 120.746754 65.5175968 121.52108 67.0389317 122.414374 68.6645516 123.307667 70.4926073 124.313665 72.56195 124.881366 73.829729 125.398975 75.0688809 125.845621 76.3755113 126.286007 77.5512741 126.622035 78.7863363 126.964325 79.9457408 127.396362 82.2072951 127.738652 84.5179247 127.974498 86.5668193 127.974498 87.6853277 127.974498 88.6054899 127.974498 89.4581736 127.815876 90.4826209 127.590465 92.2513772 127.281569 93.8401907 126.801529 95.2817782 126.622035 95.8686373 126.286007 96.5761398 126.006331 97.0689378 125.630647 97.6762449 125.300879 98.0586234 124.881366 98.5534662 124.505682 98.9522032 124.104952 99.2936856 123.624911 99.5002109 123.192874 99.7067362 122.838062 99.8212453 122.529166 99.8212453 122.295407 99.8212453 121.948943 99.7067362 121.289408 99.3877466 120.986774 99.1750869 120.66953 98.9522032 120.323065 98.6475272 119.972427 98.3060448 119.394291 97.6762449 118.709711 96.7867547 118.171231 95.8686373 117.63275 95.1345523 117.106792 94.2798238 116.36586 92.7625785 115.533094 91.183989 115.434998 91.1287793 115.297247 91.1287793 114.959132 91.3762007 114.762941 91.7912961 114.437348 92.306587 113.869648 93.8401907 113.013923 96.0219976 111.918178 98.6475272 111.09376 99.9562024 110.229687 101.322132 109.202817 102.857781 108.113333 104.360712 107.556068 105.041632 106.879837 105.783897 105.324922 107.280694 105.460586 107.415651 105.671386 107.630356 106.4478 108.076123 109.682858 109.599503 111.09376 110.378573 112.439961 111.135151 113.771553 112.08803 114.959132 113.069537 115.533094 113.51326 115.96513 114.024461 116.40969 114.617454 116.777025 115.259523 116.975303 115.793217 117.21741 116.433241 117.321767 116.987383 117.436559 117.633542 117.321767 118.06704 117.321767 118.506673 117.21741 118.96062 116.975303 119.375715 116.883469 119.700839 116.662233 120.095487 116.075748 120.878647 115.533094 121.506402 115.11358 121.976707 114.762941 122.324324 113.869648 122.962303 112.859475 123.51849 111.782514 124.05014 110.628329 124.561341 109.340568 125.056184 108.647639 125.262709 108.040283 125.430383 106.543808 125.771865 104.999329 126.096989 103.446502 126.420069 101.758011 126.689983 100.017341 126.761551 98.2328418 126.972166 96.4671266 126.972166 94.6095776 126.972166 92.6935888 126.972166 90.6962018 126.857657 88.8365656 126.689983 86.8308301 126.420069 84.8417916 126.211499 82.7463093 125.925226 80.7155282 125.430383 78.7348382 125.056184 76.7666711 124.504086 74.7484127 123.796584 72.7677228 123.21177 71.7241559 122.870287 70.7974685 122.547208 70.2109839 122.324324 69.6286736 122.203681 68.8793926 122.203681 67.9819251 122.203681 66.0784591 122.072813 65.1162904 121.976707 63.876533 121.84175 63.081335 122.547208 61.9960255 123.21177 60.5245962 123.913138 58.8966318 124.788314 57.9073304 125.262709 56.8741992 125.638953 54.592962 126.552981 53.3532046 126.857657 52.0529203 127.201184 50.2496367 127.544711 49.1204973 127.630593 47.9266568 127.730789 46.680638 127.865746 45.23008 127.918911 43.8379618 127.918911 42.389491 127.918911 39.3047073 127.918911 35.9590318 127.865746 32.7093646 127.544711 31.0647032 127.315693 29.4763944 127.08463 27.9298283 126.857657 26.3832622 126.552981 24.9410527 126.096989 23.5071918 125.771865 22.2131689 125.262709 20.9901085 124.788314 19.8484464 124.25462 18.8570578 123.671851 17.8740178 122.962303 17.5379893 122.618776 17.0976041 122.203681 16.7636627 121.84175 16.4631154 121.42461 16.1855266 121.009515 15.9705518 120.59033 15.6595689 119.700839 15.551038 119.240758 15.4132871 118.729557 15.4132871 118.257207 15.551038 117.723513 15.551038 117.193909 15.6595689 116.664304 15.6595689 116.341225 15.6595689 115.594871 15.7117473 115.030505 15.9705518 114.384346 16.1855266 113.738188 16.5758206 112.959117 16.861758 112.658531 17.0976041 112.310914 17.7133085 111.57274 18.203785 111.192406 18.6671287 110.926581 19.0949911 110.589188 19.7712224 110.378573 20.3138772 110.055494 20.9901085 109.714012 21.7602609 109.487039 22.5345875 109.255976 23.432055 109.063764 24.2815185 108.953344 25.2896041 108.824522 26.3832622 108.742729 26.6671124 108.650713 26.7297264 108.650713 26.8674772 108.536204 26.8674772 108.405337 26.6671124 108.139512 26.0868892 107.869598 24.6363312 106.638625 23.6616397 105.877958 22.5345875 104.910765 21.3991868 103.829063 20.217869 102.446775 18.8570578 100.888634 18.3498843 100.046174 17.6778273 99.1750869 17.0976041 98.1690429 16.5758206 97.0689378 15.8724566 96.0219976 15.4132871 94.8278315 14.8664581 93.6357102 14.319629 92.306587 13.9230736 91.0326734 13.5453024 89.4581736 13.4325972 89.4009191 13.3178048 89.4009191 13.2593651 89.2884548 13.1195271 89.2884548 12.8899424 89.4009191 12.7751501 89.4581736 12.6165279 89.7219534 12.5601753 90.0429878 12.4412087 90.3292605 12.2345824 90.8057001 11.5708739 91.9630597 11.2264968 92.6644278 10.6796678 93.2758245 10.0994446 94.0119543 9.45869452 94.8278315 8.78246318 95.5516925 7.98726522 96.2530606 7.25259414 96.9114878 6.43861197 97.4349579 5.54949299 97.9809208 4.69376815 98.3060448 3.68568255 98.5534662 2.69638115 98.6475272 2.60037299 98.6475272 2.46262217 98.6475272 2.23512459 98.5534662 2.05563108 98.1690429 1.76551949 97.9809208 1.38566115 97.0689378 1.1477279 96.5761398 0.89309758 95.8686373 0.68229707 95.1345523 0.569591847 94.4106913 0.256521783 92.7625785 0.137555159 91.7912961 0.137555159 90.8057001 0.137555159 88.6054899 0.256521783 86.2273817 0.452712357 85.0127676 0.68229707 83.7613469 0.89309758 82.4138204 1.26669452 81.1603549 1.68620841 79.7167226 2.1182451 78.3098968 2.69638115 76.8621749 3.24112306 75.4819315 3.99457834 74.0812401 4.69376815 72.56195 5.54949299 71.1367209 6.55549146 69.5990275 7.57818701 68.2167393 8.64679949 66.679046 9.53800561 65.6075682 10.6796678 64.3806852 11.8818568 63.1435782 12.4412087 62.5546743 13.1195271 61.8921575 14.1046543 61.0558323 15.1169141 60.2031486 16.7636627 58.7574715 18.0055073 57.8679813"></polygon>
        </g>
    </g>
</svg>