<svg width="128" height="128" xmlns="http://www.w3.org/2000/svg"><path d="M18.448 57.545l-.244-.744-.198-.968-.132-.53v-2.181l.236-.859.24-.908.317-.953.428-1.06.561-1.103.794-1.104v-.773l.077-.724.123-.984.34-1.106.313-1.194.25-.548.289-.511.371-.569.405-.423v-2.73l.234-1.407.236-1.633.42-1.955.577-2.035.43-1.118.426-1.217.468-1.135.559-1.216.57-1.332.655-1.247.737-1.331.929-1.33.43-.762.457-.624.995-1.406 1.025-1.403 1.163-1.444 1.246-1.405 1.352-1.384 1.41-1.423 1.708-1.536 1.083-.934 1.322-1.008 1.34-.89 1.448-.855 1.392-.76 1.57-.63 1.667-.775 1.657-.532 1.653-.552 1.787-.548 1.785-.417 1.876-.347L59.128.68l1.879-.245 1.876-.252 2.002-.106h5.912l1.97.243 1.981.231 2.019.207 1.874.441 1.979.413 1.857.475 2.035.53 1.862.646 1.782.738 1.904.78 1.736.853 1.689.95 1.655 1.044 1.425.971.662.548.693.401 1.323 1.1 1.115 1.064 1.112 1.1 1.083 1.214.894 1.178 1.064 1.217.74 1.306.752 1.162.798 1.352.661 1.175 1.113 2.489.546 1.286.428 1.192.428 1.294.384 1.217.267 1.047.347 1.231.607 2.198.388 1.924.253 1.861.217 1.497.342 2.28.077.362.274.41.737 1.18.473.8.42.832.534.892.472 1.07.307 1.093.334 1.2.252 1.232.115.605.106.746v.648l-.106.643v.8l-.192.774-.35 1.5-.403.76-.299.852v.213l.142.264.4.623 1.746 2.53 1.377 1.9.66 1.267.889 1.389.774 1.52.893 1.627.894 1.828 1.006 2.069.567 1.268.518 1.239.447 1.307.44 1.175.336 1.235.342 1.16.432 2.261.343 2.31.235 2.05v2.891l-.158 1.025-.226 1.768-.308 1.59-.48 1.44-.18.588-.336.707-.28.493-.375.607-.33.383-.42.494-.375.4-.401.34-.48.207-.432.207-.355.114h-.543l-.346-.114-.66-.32-.302-.212-.317-.223-.347-.304-.35-.342-.579-.63-.684-.89-.539-.917-.538-.734-.526-.855-.741-1.517-.833-1.579-.098-.055h-.138l-.338.247-.196.415-.326.516-.567 1.533-.856 2.182-1.096 2.626-.824 1.308-.864 1.366-1.027 1.536-1.09 1.503-.557.68-.676.743-1.555 1.497.136.135.21.214.777.446 3.235 1.524 1.41.779 1.347.756 1.332.953 1.187.982.574.443.432.511.445.593.367.643.198.533.242.64.105.554.115.647-.115.433v.44l-.105.454-.242.415-.092.325-.22.394-.587.784-.543.627-.42.47-.35.348-.893.638-1.01.556-1.077.532-1.155.511-1.287.495-.693.207-.608.167-1.496.342-1.545.325-1.552.323-1.689.27-1.74.072-1.785.21h-5.539l-1.998-.114-1.86-.168-2.005-.27-1.99-.209-2.095-.286-2.03-.495-1.981-.374-1.968-.552-2.019-.707-1.98-.585-1.044-.342-.927-.323-.586-.223-.582-.12h-1.647l-1.904-.131-.962-.096-1.24-.135-.795.705-1.085.665-1.471.701-1.628.875-.99.475-1.033.376-2.281.914-1.24.305-1.3.343-1.803.344-1.13.086-1.193.1-1.246.135-1.45.053h-5.926l-3.346-.053-3.25-.321-1.644-.23-1.589-.23-1.546-.227-1.547-.305-1.442-.456-1.434-.325-1.294-.51-1.223-.474-1.142-.533-.99-.583-.984-.71-.336-.343-.44-.415-.334-.362-.3-.417-.278-.415-.215-.42-.311-.89-.109-.46-.138-.51v-.473l.138-.533v-.53l.109-.53v-1.069l.052-.564.259-.647.215-.646.39-.779.286-.3.236-.348.615-.738.49-.38.464-.266.428-.338.676-.21.543-.324.676-.341.77-.227.775-.231.897-.192.85-.11 1.008-.13 1.093-.081.284-.092h.063l.137-.115v-.13l-.2-.266-.58-.27-1.45-1.231-.975-.761-1.127-.967-1.136-1.082-1.181-1.382-1.36-1.558-.508-.843-.672-.87-.58-1.007-.522-1.1-.704-1.047-.459-1.194-.547-1.192-.546-1.33-.397-1.273-.378-1.575-.112-.057h-.115l-.059-.113h-.14l-.23.113-.114.057-.158.264-.057.321-.119.286-.206.477-.664 1.157-.345.701-.546.612-.58.736-.641.816-.677.724-.795.701-.734.658-.814.524-.89.546-.855.325-1.008.247-.99.095h-.233l-.228-.095-.18-.384-.29-.188-.38-.912-.237-.493-.255-.707-.21-.734-.113-.724-.313-1.648-.12-.972v-3.185l.12-2.379.196-1.214.23-1.252.21-1.347.374-1.254.42-1.443.431-1.407.578-1.448.545-1.38.754-1.4.699-1.52.855-1.425 1.006-1.538 1.023-1.382 1.069-1.538.891-1.071 1.142-1.227 1.202-1.237.56-.59.678-.662.985-.836 1.012-.853 1.647-1.446 1.242-.889z"/></svg>