<?xml version="1.0" standalone="no"?><!DOCTYPE svg PUBLIC "-//W3C//DTD SVG 1.1//EN" "http://www.w3.org/Graphics/SVG/1.1/DTD/svg11.dtd"><svg t="1544366953271" class="icon" style="" viewBox="0 0 1024 1024" version="1.1" xmlns="http://www.w3.org/2000/svg" p-id="4582" xmlns:xlink="http://www.w3.org/1999/xlink" width="200" height="200"><defs><style type="text/css"></style></defs><path d="M945.4 383.3l-399-204.6c-23.7-12.1-51.9-12.1-75.5 0.2L77.2 383.4c-9.8 5.1-15.8 15.1-15.8 26.1 0 11 6.1 21 15.8 26.1l37.5 19.5v193.5c-14.8 8.3-25 24-25 42.2 0 26.8 21.7 48.5 48.5 48.5s48.5-21.7 48.5-48.5c0-18.2-10.1-33.9-25-42.2v-169l104.5 54.3V746c0 25.7 16.5 48.2 41 56L432 841.7c25.6 8.1 52 12.2 78.3 12.2 25.3 0 50.6-3.7 75.2-11.2l134.1-40.8c24.8-7.6 41.6-30.1 41.7-56l0.8-216.2 183.3-94c9.9-5.1 16-15.1 16-26.1-0.1-11.2-6.2-21.2-16-26.3zM714.2 745.7c0 5.2-3.4 9.7-8.3 11.2l-134.1 40.8c-41.2 12.5-84.6 12.2-125.7-0.8l-124.7-39.6c-4.9-1.6-8.2-6.1-8.2-11.2v-188L470.9 640c11.9 6.2 24.9 9.3 37.9 9.3 12.9 0 25.8-3 37.6-9.1l168.5-86.4-0.7 191.9zM525 598.4c-10.1 5.2-22.2 5.2-32.3-0.1L129 409.4l363.6-188.8c10.1-5.3 22.2-5.3 32.3-0.1l368.4 188.9-368.3 189z" p-id="4583"></path></svg>