<svg width="128" height="128" xmlns="http://www.w3.org/2000/svg"><path d="M42.913 101.36c1.642 0 3.198.332 4.667.996a12.28 12.28 0 0 1 3.89 2.772c1.123 1.184 1.987 2.582 2.592 4.193.605 1.612.908 3.318.908 5.118 0 1.8-.303 3.507-.908 5.118-.605 1.611-1.469 3.01-2.593 4.194a13.3 13.3 0 0 1-3.889 2.843 10.582 10.582 0 0 1-4.667 1.066c-1.729 0-3.306-.355-4.732-1.066a13.604 13.604 0 0 1-3.825-2.843c-1.123-1.185-1.988-2.583-2.593-4.194a14.437 14.437 0 0 1-.907-5.118c0-1.8.302-3.506.907-5.118.605-1.61 1.47-3.009 2.593-4.193a12.515 12.515 0 0 1 3.825-2.772c1.426-.664 3.003-.996 4.732-.996zm53.932.285c1.643 0 3.22.331 4.733.995a11.386 11.386 0 0 1 3.889 2.772c1.08 1.185 1.945 2.583 2.593 4.194.648 1.61.972 3.317.972 5.118 0 1.8-.324 3.506-.972 5.117-.648 1.611-1.513 3.01-2.593 4.194a12.253 12.253 0 0 1-3.89 2.843 11 11 0 0 1-4.732 1.066 10.58 10.58 0 0 1-4.667-1.066 12.478 12.478 0 0 1-3.824-2.843c-1.08-1.185-1.945-2.583-2.593-4.194a13.581 13.581 0 0 1-.973-5.117c0-1.801.325-3.507.973-5.118.648-1.611 1.512-3.01 2.593-4.194a11.559 11.559 0 0 1 3.824-2.772 11.212 11.212 0 0 1 4.667-.995zm21.781-80.747c2.42 0 4.3.355 5.64 1.066 1.34.71 2.29 1.587 2.852 2.63a6.427 6.427 0 0 1 .778 3.34c-.044 1.185-.195 2.204-.454 3.057-.26.853-.8 2.606-1.62 5.26a589.268 589.268 0 0 1-2.788 8.743 1236.373 1236.373 0 0 0-3.047 9.453c-.994 3.128-1.75 5.592-2.269 7.393-1.123 3.79-2.55 6.42-4.278 7.89-1.728 1.469-3.846 2.203-6.352 2.203H39.023l1.945 12.795h65.342c4.148 0 6.223 1.943 6.223 5.828 0 1.896-.41 3.53-1.232 4.905-.821 1.374-2.442 2.061-4.862 2.061H38.505c-1.729 0-3.176-.426-4.343-1.28-1.167-.852-2.14-1.966-2.917-3.34a21.277 21.277 0 0 1-1.88-4.478 44.128 44.128 0 0 1-1.102-4.55c-.087-.568-.324-1.942-.713-4.122-.39-2.18-.865-4.904-1.426-8.174l-1.88-10.947c-.692-4.027-1.383-8.079-2.075-12.154-1.642-9.572-3.5-20.234-5.574-31.986H6.87c-1.296 0-2.377-.356-3.24-1.067a9.024 9.024 0 0 1-2.14-2.558 10.416 10.416 0 0 1-1.167-3.2C.108 8.53 0 7.488 0 6.54c0-1.896.583-3.46 1.75-4.69C2.917.615 4.494 0 6.482 0h13.095c1.728 0 3.111.284 4.148.853 1.037.569 1.858 1.28 2.463 2.132a8.548 8.548 0 0 1 1.297 2.701c.26.948.475 1.754.648 2.417.173.758.346 1.825.519 3.199.173 1.374.345 2.772.518 4.193.26 1.706.519 3.507.778 5.403h88.678z"/></svg>