<?xml version="1.0" standalone="no"?><!DOCTYPE svg PUBLIC "-//W3C//DTD SVG 1.1//EN" "http://www.w3.org/Graphics/SVG/1.1/DTD/svg11.dtd"><svg t="1527285442202" class="icon" style="" viewBox="0 0 1024 1024" version="1.1" xmlns="http://www.w3.org/2000/svg" p-id="2007" xmlns:xlink="http://www.w3.org/1999/xlink" width="200" height="200"><defs><style type="text/css"></style></defs><path d="M895.955742 187.552583c-11.351536-3.515057-23.765263-4.945639-35.7052-4.995781-94.78476-0.387833-189.56952-0.214894-284.35735-0.214894-96.326882 0-192.649672 0-288.972461-0.011256-2.495844 0-5.002944-0.065492-7.494695 0.080841-15.774265 0.914836-27.860535 16.096607-25.25315 31.674397 0.354064 2.115174 0.896416 4.093225 1.582031 5.953595 12.873192 47.686069 25.738198 95.374184 38.614459 143.058207 10.510378 38.911218 20.947078 77.836763 31.556717 116.722398 2.877537 10.536984 10.509355 17.935488 19.87363 20.315698l-0.11461 0.556679c1.020236 0.001023 2.040473 0.00307 3.060709 0.005117 2.057869 0.281409 4.173043 0.352017 6.330172 0.144286 0.367367-0.035816 0.724501-0.085958 1.085728-0.13303 47.659463 0.071631 95.318926 0.150426 142.977365 0.217964 40.305985 0.054235 80.605829 0.184195 120.912837 0.135076 14.367219-0.019443 25.670659-9.387811 27.926026-22.623253 3.180436-18.646686-9.934257-32.946366-30.328749-32.972972-81.168648-0.106424-162.336272-0.206708-243.503896-0.312108-18.671245-69.110007-37.34556-138.217968-56.016805-207.327976 179.178869 0.005117 358.357737-0.002047 537.537629 0.045025 5.941316 0 11.882632 0.673335 17.827017 0.934279 3.418866 0.154519 4.941546 1.715061 4.291746 5.15337-1.034563 5.460362-1.723248 11.021008-3.187599 16.361643-25.237801 91.989087-50.693566 183.92087-75.79629 275.948843-6.302543 23.106254-11.582803 46.489824-17.242709 69.77004-3.257184 13.385868-14.666024 21.38403-30.955013 21.38403-145.736199 0.008186-291.476491 0.008186-437.21269 0.004093-1.533936 0-3.080152 0.041956-4.609994-0.065492-14.774495-1.034563-24.945135-10.594289-27.018354-25.217335-0.698918-4.930289-1.24127-9.940396-2.564405-14.71719-35.012422-126.32408-70.116941-252.621555-105.202017-378.923122-10.789741-38.83447-21.506826-77.68429-32.397874-116.492154-3.883447-13.83203-15.947204-22.198581-29.30135-20.810978-18.815531 1.953492-29.059849 18.430768-23.599488 38.081317 41.319058 148.681274 82.683141 297.347199 123.936707 446.047916 4.971222 17.923208 11.024078 35.765575 13.685697 54.066383 6.051833 41.62605 40.171931 73.469292 82.337263 73.52762 148.812257 0.199545 297.627584 0.176009 446.439842 0.011256 39.772842-0.041956 73.358775-28.233018 81.122599-67.205635 1.049912-5.26491 1.292436-10.725272 2.706645-15.873526 27.221991-99.207489 54.689576-198.345394 81.761142-297.593815 5.036713-18.469654 9.940396-37.162388 12.493545-56.07718C936.823522 219.199351 921.546583 195.47809 895.955742 187.552583z" p-id="2008"></path><path d="M369.680621 738.653113c-46.628994-2.63399-85.544305 33.066093-88.044242 80.771605-2.337231 44.62536 33.912367 83.645049 79.945797 86.055958 44.471864 2.322905 84.636632-33.761941 86.759993-77.95342C450.606745 780.410146 415.963737 741.267661 369.680621 738.653113zM365.012298 849.818959c-15.427364-0.046049-27.79402-12.56313-27.64871-27.979238 0.150426-15.407921 12.801561-27.90249 28.02938-27.66713 15.243169 0.23843 27.798113 13.169951 27.506471 28.332279C392.606773 837.571007 380.058992 849.860914 365.012298 849.818959z" p-id="2009"></path><path d="M699.106422 738.559992c-46.221718-0.096191-83.597977 37.235043-83.60207 83.495646 0 45.987381 37.184901 83.36057 83.071997 83.48746 46.124504 0.12689 83.60207-37.307697 83.609233-83.529415C782.193769 776.029372 744.989425 738.656183 699.106422 738.559992zM698.671517 849.818959c-15.130605-0.103354-27.501354-12.428054-27.616988-27.52489-0.119727-15.331173 12.366655-28.02938 27.655873-28.124548 15.262612-0.092098 27.836999 12.504802 27.832905 27.878954C726.539214 837.478909 714.049762 849.922313 698.671517 849.818959z" p-id="2010"></path></svg>