<?xml version="1.0" standalone="no"?><!DOCTYPE svg PUBLIC "-//W3C//DTD SVG 1.1//EN" "http://www.w3.org/Graphics/SVG/1.1/DTD/svg11.dtd"><svg t="1555640763920" class="icon" style="" viewBox="0 0 1024 1024" version="1.1" xmlns="http://www.w3.org/2000/svg" p-id="1499" xmlns:xlink="http://www.w3.org/1999/xlink" width="200" height="200"><defs><style type="text/css"></style></defs><path d="M264.032 719.136l256.064 0c11.04 17.088 23.584 32.96 37.792 47.296l-293.856 0 0-47.296zM264.032 644.32l221.664 0c-4.48-15.264-7.712-31.04-9.696-47.264l-211.968 0 0 47.264zM264.032 522.272l212.64 0c2.208-16.16 5.472-32.032 10.272-47.264l-222.944 0 0 47.264zM677.344 839.168l0 41.344c0 19.776-16.064 35.872-35.776 35.872l-537.184 0c-19.744 0-35.744-16.096-35.744-35.872l0-599.168 178.016-148.128 0 157.248-93.728 0 0 47.264 140.992 0 0-230.048 347.648 0c19.744 0 35.776 16.096 35.776 35.808l0 141.408c15.232-4.768 31.072-7.968 47.296-10.208l0-131.168c0.032-45.792-37.248-83.104-83.04-83.104l-381.408 0-238.816 198.72 0 621.344c0 45.792 37.248 83.104 83.04 83.104l537.184 0c45.792 0 83.072-37.248 83.072-83.104l0-31.168c-16.224-2.208-32.064-5.408-47.296-10.144l0 0zM199.84 475.04l-61.024 0 0 47.264 61.024 0 0-47.264zM138.848 766.432l61.024 0 0-47.296-61.024 0 0 47.296zM199.84 597.088l-61.024 0 0 47.264 61.024 0 0-47.264zM887.648 490.784l-37.536-28.768-95.424 124.48-85.792-65.76-28.832 37.536 123.36 94.56 124.224-162.048zM1002.656 562.048c0-131.68-107.104-238.752-238.784-238.752-131.616 0-238.688 107.104-238.688 238.752s107.104 238.752 238.688 238.752c131.648 0 238.752-107.072 238.752-238.752l0 0zM955.36 562.048c0 105.536-85.888 191.52-191.52 191.52-105.568 0-191.552-85.92-191.552-191.52s85.824-191.52 191.552-191.52c105.632 0 191.52 85.92 191.52 191.52l0 0z" p-id="1500"></path></svg>