<?xml version="1.0" standalone="no"?><!DOCTYPE svg PUBLIC "-//W3C//DTD SVG 1.1//EN" "http://www.w3.org/Graphics/SVG/1.1/DTD/svg11.dtd"><svg t="1503994797471" class="icon" style="" viewBox="0 0 1024 1024" version="1.1" xmlns="http://www.w3.org/2000/svg" p-id="9770" xmlns:xlink="http://www.w3.org/1999/xlink" width="64" height="64"><defs><style type="text/css"></style></defs><path d="M565.272827 34.627285l112.095872 237.542288c8.706637 18.321022 25.411424 31.051641 44.82285 33.996289l250.776598 38.081157c48.697387 7.411435 68.22505 70.046082 32.933559 105.979639l-181.494353 184.937155c-13.998147 14.230618-20.352386 34.815477-17.05903 54.93539l42.819161 261.127145c8.346858 50.695541-42.64204 89.451974-86.225039 65.51841l-224.307979-123.271141c-17.285968-9.525824-37.992596-9.525824-55.278564 0l-224.313514 123.271141c-43.582999 23.933565-94.571897-14.822869-86.219504-65.51841l42.813626-261.127145c3.321031-20.119914-3.088559-40.704772-17.086706-54.93539l-181.439002-184.937155c-35.285956-35.933557-15.819179-98.57374 32.933559-105.979639l250.748923-38.081157c19.350541-2.939112 36.083003-15.675267 44.75643-33.996289l112.123547-237.542288C480.497972-11.540583 543.509003-11.540583 565.272827 34.627285z" p-id="9771"></path></svg>