<?xml version="1.0" encoding="UTF-8" standalone="no"?>
<svg width="128px" height="128px" viewBox="0 0 128 128" version="1.1" xmlns="http://www.w3.org/2000/svg" xmlns:xlink="http://www.w3.org/1999/xlink">
    <!-- Generator: Sketch 40 (33762) - http://www.bohemiancoding.com/sketch -->
    <title>star</title>
    <desc>Created with Sketch.</desc>
    <defs></defs>
    <g id="Page-1" stroke="none" stroke-width="1" fill="none" fill-rule="evenodd">
        <g id="star" fill="#000000">
            <path d="M70.6591034,4.32841062 L84.6710874,34.0211966 C85.759417,36.3113244 87.8475154,37.9026517 90.2739436,38.2707327 L121.621018,43.0308774 C127.708192,43.9573067 130.14915,51.7866376 125.737713,56.2783322 L103.050919,79.3954766 C101.301151,81.1743039 100.506871,83.7474112 100.91854,86.2624004 L106.270935,118.903293 C107.314293,125.240236 100.94068,130.08479 95.4928056,127.093095 L67.4543082,111.684202 C65.2935622,110.493474 62.7052337,110.493474 60.5444877,111.684202 L32.5052985,127.093095 C27.0574236,130.08479 20.6838114,125.240236 21.7278605,118.903293 L27.0795637,86.2624004 C27.4946926,83.7474111 26.6934939,81.1743039 24.9437255,79.3954766 L2.26385025,56.2783322 C-2.14689425,51.7866376 0.286452875,43.9566147 6.38054512,43.0308774 L37.7241605,38.2707327 C40.1429781,37.9033437 42.2345359,36.3113244 43.3187142,34.0211966 L57.3341576,4.32841062 C60.0622465,-1.44257288 67.9386254,-1.44257288 70.6591034,4.32841062 L70.6591034,4.32841062 L70.6591034,4.32841062 Z" id="Shape"></path>
        </g>
    </g>
</svg>