<?xml version="1.0" standalone="no"?><!DOCTYPE svg PUBLIC "-//W3C//DTD SVG 1.1//EN" "http://www.w3.org/Graphics/SVG/1.1/DTD/svg11.dtd"><svg t="1506329761546" class="icon" style="" viewBox="0 0 1024 1024" version="1.1" xmlns="http://www.w3.org/2000/svg" p-id="1384" xmlns:xlink="http://www.w3.org/1999/xlink" width="64" height="64"><defs><style type="text/css"></style></defs><path d="M622.276923 39.384615H401.723077c-13.784615 0-23.630769 11.815385-23.630769 25.6v49.23077c0 13.784615 11.815385 25.6 23.630769 25.6h220.553846c13.784615 0 23.630769-11.815385 23.630769-25.6V64.984615c1.969231-13.784615-9.846154-25.6-23.630769-25.6z m336.738462 0H738.461538c-13.784615 0-25.6 11.815385-25.6 25.6v49.23077c0 13.784615 11.815385 25.6 25.6 25.6h220.553847c13.784615-1.969231 25.6-11.815385 25.6-25.6V64.984615c0-13.784615-11.815385-25.6-25.6-25.6z m0 165.415385H334.769231c-13.784615 0-25.6-11.815385-25.6-25.6V64.984615c0-13.784615-11.815385-25.6-25.6-25.6H64.984615C51.2 39.384615 39.384615 51.2 39.384615 64.984615v896c0 11.815385 11.815385 23.630769 25.6 23.63077h894.03077c13.784615 0 25.6-11.815385 25.6-25.6v-728.615385c0-13.784615-11.815385-25.6-25.6-25.6z" p-id="1385"></path></svg>