<svg width="128" height="128" xmlns="http://www.w3.org/2000/svg"><g><path d="M.006.064h127.988v31.104H.006V.064zm0 38.016h38.396v41.472H.006V38.08zm0 48.384h38.396v41.472H.006V86.464zM44.802 38.08h38.396v41.472H44.802V38.08zm0 48.384h38.396v41.472H44.802V86.464zM89.598 38.08h38.396v41.472H89.598zm0 48.384h38.396v41.472H89.598z"/><path d="M.006.064h127.988v31.104H.006V.064zm0 38.016h38.396v41.472H.006V38.08zm0 48.384h38.396v41.472H.006V86.464zM44.802 38.08h38.396v41.472H44.802V38.08zm0 48.384h38.396v41.472H44.802V86.464zM89.598 38.08h38.396v41.472H89.598zm0 48.384h38.396v41.472H89.598z"/></g></svg>