<?xml version="1.0" encoding="UTF-8" standalone="no"?>
<svg width="128px" height="128px" viewBox="0 0 128 128" version="1.1" xmlns="http://www.w3.org/2000/svg" xmlns:xlink="http://www.w3.org/1999/xlink">
    <!-- Generator: Sketch 40 (33762) - http://www.bohemiancoding.com/sketch -->
    <title>table</title>
    <desc>Created with Sketch.</desc>
    <defs></defs>
    <g id="Page-1" stroke="none" stroke-width="1" fill="none" fill-rule="evenodd">
        <g id="table" fill="#000000">
            <g id="Group">
                <polygon id="Shape" points="0.00565889438 0.0638286602 127.994047 0.0638286602 127.994047 31.1677272 0.00565889438 31.1677272 0.00565889438 0.0638286602"></polygon>
                <polygon id="Shape" points="0.00565889438 38.0797931 38.4022783 38.0797931 38.4022783 79.5517109 0.00565889438 79.5517109 0.00565889438 38.0797931"></polygon>
                <polygon id="Shape" points="0.00565889438 86.4637766 38.4022783 86.4637766 38.4022783 127.935853 0.00565889438 127.935853 0.00565889438 86.4637766"></polygon>
                <polygon id="Shape" points="44.8016167 38.0797931 83.198236 38.0797931 83.198236 79.5517109 44.8016167 79.5517109 44.8016167 38.0797931"></polygon>
                <polygon id="Shape" points="44.8016167 86.4637766 83.198236 86.4637766 83.198236 127.935853 44.8016167 127.935853 44.8016167 86.4637766"></polygon>
                <polygon id="Shape" points="89.5975745 38.0797931 127.994194 38.0797931 127.994194 79.5517109 89.5975745 79.5517109"></polygon>
                <polygon id="Shape" points="89.5975745 86.4637766 127.994194 86.4637766 127.994194 127.935853 89.5975745 127.935853"></polygon>
                <polygon id="Shape" points="0.00565889438 0.0638286602 127.994047 0.0638286602 127.994047 31.1677272 0.00565889438 31.1677272 0.00565889438 0.0638286602"></polygon>
                <polygon id="Shape" points="0.00565889438 38.0797931 38.4022783 38.0797931 38.4022783 79.5517109 0.00565889438 79.5517109 0.00565889438 38.0797931"></polygon>
                <polygon id="Shape" points="0.00565889438 86.4637766 38.4022783 86.4637766 38.4022783 127.935853 0.00565889438 127.935853 0.00565889438 86.4637766"></polygon>
                <polygon id="Shape" points="44.8016167 38.0797931 83.198236 38.0797931 83.198236 79.5517109 44.8016167 79.5517109 44.8016167 38.0797931"></polygon>
                <polygon id="Shape" points="44.8016167 86.4637766 83.198236 86.4637766 83.198236 127.935853 44.8016167 127.935853 44.8016167 86.4637766"></polygon>
                <polygon id="Shape" points="89.5975745 38.0797931 127.994194 38.0797931 127.994194 79.5517109 89.5975745 79.5517109"></polygon>
                <polygon id="Shape" points="89.5975745 86.4637766 127.994194 86.4637766 127.994194 127.935853 89.5975745 127.935853"></polygon>
            </g>
        </g>
    </g>
</svg>