<svg width="128" height="128" xmlns="http://www.w3.org/2000/svg"><path d="M125.5 36.984L95.336 2.83C93.735 1.018 91.565 0 89.3 0c-2.263 0-4.433 1.018-6.033 2.83l-3.786 4.286c-1.6 1.812-3.77 2.83-6.032 2.831H54.553c-2.263 0-4.434-1.018-6.033-2.83L44.734 2.83C43.134 1.018 40.964 0 38.701 0c-2.263 0-4.434 1.018-6.034 2.83L2.5 36.984C.9 38.796 0 41.254 0 43.815c0 2.562.899 5.02 2.5 6.831L14.565 64.31c2.178 2.468 5.367 3.403 8.33 2.444 1.35-.435 2.709.592 2.709 2.18v49.407c0 5.313 3.84 9.66 8.532 9.66h59.726c4.693 0 8.532-4.347 8.532-9.66V68.934c0-1.59 1.36-2.616 2.71-2.181 2.962.96 6.15.024 8.329-2.444L125.5 50.646c1.6-1.811 2.499-4.269 2.499-6.83 0-2.563-.899-5.02-2.5-6.832z"/></svg>