<?xml version="1.0" standalone="no"?><!DOCTYPE svg PUBLIC "-//W3C//DTD SVG 1.1//EN" "http://www.w3.org/Graphics/SVG/1.1/DTD/svg11.dtd"><svg t="1503994829667" class="icon" style="" viewBox="0 0 1024 1024" version="1.1" xmlns="http://www.w3.org/2000/svg" p-id="9989" xmlns:xlink="http://www.w3.org/1999/xlink" width="64" height="64"><defs><style type="text/css"></style></defs><path d="M788.00002 159.831491C756.00002 128 746 128 724.3801 128L642 128C642 128 576 188.923077 512 188.923077 448 188.923077 384 128 384 128L299.204802 128C276.629934 128 266 140.923077 245.847214 159.831491L81.582979 323.871735C70.243732 335.19552 52 371.692308 81.582979 408.655004 81.582979 408.655004 224.023667 540.29784 238.000003 541.53846L238.000003 835.076924C238.000003 868.452352 286.579 896 320 896L706 896C739.419808 896 788.00002 868.452352 788.00002 835.076924L788.00002 541.53846C802.145492 540.385864 942.448564 408.654992 942.448564 408.654992 974.00002 372 965.851264 334.883878 942.448584 311.513109L788.00002 159.831491Z" p-id="9990"></path></svg>