<svg width="128" height="128" xmlns="http://www.w3.org/2000/svg"><path d="M126.713 90.023c.858.985 1.287 2.134 1.287 3.447v29.553c0 1.423-.429 2.6-1.287 3.53-.858.93-1.907 1.395-3.146 1.395H97.824c-1.145 0-2.146-.465-3.004-1.395-.858-.93-1.287-2.107-1.287-3.53V93.47c0-.875.19-1.696.572-2.462.382-.766.906-1.368 1.573-1.806a3.84 3.84 0 0 1 2.146-.657h9.725V69.007a3.84 3.84 0 0 0-.43-1.806 3.569 3.569 0 0 0-1.143-1.313 2.714 2.714 0 0 0-1.573-.492h-36.47v23.149h9.725c1.144 0 2.145.492 3.004 1.478.858.985 1.287 2.134 1.287 3.447v29.553c0 .876-.191 1.696-.573 2.463-.38.766-.905 1.368-1.573 1.806a3.84 3.84 0 0 1-2.145.656H51.915a3.84 3.84 0 0 1-2.145-.656c-.668-.438-1.216-1.04-1.645-1.806a4.96 4.96 0 0 1-.644-2.463V93.47c0-1.313.43-2.462 1.288-3.447.858-.986 1.907-1.478 3.146-1.478h9.582v-23.15h-37.9c-.953 0-1.74.356-2.359 1.068-.62.711-.93 1.56-.93 2.544v19.538h9.726c1.239 0 2.264.492 3.074 1.478.81.985 1.216 2.134 1.216 3.447v29.553c0 1.423-.405 2.6-1.216 3.53-.81.93-1.835 1.395-3.074 1.395H4.29c-.476 0-.93-.082-1.358-.246a4.1 4.1 0 0 1-1.144-.657 4.658 4.658 0 0 1-.93-1.067 5.186 5.186 0 0 1-.643-1.395 5.566 5.566 0 0 1-.215-1.56V93.47c0-.437.048-.875.143-1.313a3.95 3.95 0 0 1 .429-1.15c.19-.328.429-.656.715-.984.286-.329.572-.602.858-.821.286-.22.62-.383 1.001-.493.382-.11.763-.164 1.144-.164h9.726V61.619c0-.985.31-1.833.93-2.544.619-.712 1.358-1.068 2.216-1.068h44.335V39.62h-9.582c-1.24 0-2.288-.492-3.146-1.477a5.09 5.09 0 0 1-1.287-3.448V5.14c0-1.423.429-2.627 1.287-3.612.858-.985 1.907-1.477 3.146-1.477h25.743c.763 0 1.478.246 2.145.739a5.17 5.17 0 0 1 1.573 1.888c.382.766.573 1.587.573 2.462v29.553c0 1.313-.43 2.463-1.287 3.448-.859.985-1.86 1.477-3.004 1.477h-9.725v18.389h42.762c.954 0 1.74.355 2.36 1.067.62.711.93 1.56.93 2.545v26.925h9.582c1.239 0 2.288.492 3.146 1.478z"/></svg>