<svg width="128" height="128" xmlns="http://www.w3.org/2000/svg"><path d="M44.8 0h79.543C126.78 0 128 1.422 128 4.267v23.466c0 2.845-1.219 4.267-3.657 4.267H44.8c-2.438 0-3.657-1.422-3.657-4.267V4.267C41.143 1.422 42.362 0 44.8 0zm22.857 48h56.686c2.438 0 3.657 1.422 3.657 4.267v23.466c0 2.845-1.219 4.267-3.657 4.267H67.657C65.22 80 64 78.578 64 75.733V52.267C64 49.422 65.219 48 67.657 48zm0 48h56.686c2.438 0 3.657 1.422 3.657 4.267v23.466c0 2.845-1.219 4.267-3.657 4.267H67.657C65.22 128 64 126.578 64 123.733v-23.466C64 97.422 65.219 96 67.657 96zM50.286 68.267c2.02 0 3.657-1.91 3.657-4.267 0-2.356-1.638-4.267-3.657-4.267H17.37V32h6.4c2.02 0 3.658-1.91 3.658-4.267V4.267C27.429 1.91 25.79 0 23.77 0H3.657C1.637 0 0 1.91 0 4.267v23.466C0 30.09 1.637 32 3.657 32h6.4v80c0 2.356 1.638 4.267 3.657 4.267h36.572c2.02 0 3.657-1.91 3.657-4.267 0-2.356-1.638-4.267-3.657-4.267H17.37V68.267h32.915z"/></svg>