<?xml version="1.0" standalone="no"?><!DOCTYPE svg PUBLIC "-//W3C//DTD SVG 1.1//EN" "http://www.w3.org/Graphics/SVG/1.1/DTD/svg11.dtd"><svg t="1542968321128" class="icon" style="" viewBox="0 0 1024 1024" version="1.1" xmlns="http://www.w3.org/2000/svg" p-id="1821" xmlns:xlink="http://www.w3.org/1999/xlink" width="200" height="200"><defs><style type="text/css"></style></defs><path d="M483.2 553.6l-51.2 38.4c-6.4 6.4-25.6 6.4-32-6.4-12.8-12.8-6.4-25.6 6.4-32l96-70.4c6.4-6.4 19.2-6.4 32 0l96 70.4c0 6.4 6.4 19.2-6.4 32-6.4 6.4-12.8 12.8-19.2 12.8-6.4 0-12.8 0-12.8-6.4l-57.6-39.872v298.816c0 14.528-6.4 29.056-25.6 29.056-12.8 0-25.6-14.528-25.6-29.056V553.6z m-204.8 256h-19.2c-115.2 0-204.8-102.4-204.8-224 0-128 96-230.4 211.2-224 38.4-128 147.2-217.6 268.8-217.6 134.4 0 249.6 102.4 281.6 249.6 89.6 19.2 153.6 102.4 153.6 204.8 0 115.2-83.2 211.2-185.6 211.2-32 0-96 0-166.4-57.6-12.8-12.8-12.8-32 0-38.4 12.8-12.8 25.6-12.8 38.4 0 51.2 51.2 96 44.8 121.6 44.8h6.4c76.8 0 134.4-70.4 134.4-160 0-83.2-57.6-153.6-128-160-12.8 0-19.2-12.8-25.6-19.2-19.2-128-115.2-224-230.4-224-102.4 0-198.4 83.2-224 198.4 0 12.8-12.8 19.2-32 19.2h-25.6c-83.2 0-147.2 76.8-147.2 172.8 0 96 64 172.8 147.2 172.8h12.8c25.6 0 57.6 0 102.4-44.8 12.8-12.8 25.6-12.8 38.4 0 12.8 12.8 12.8 25.6 0 38.4-51.2 51.2-96 57.6-128 57.6z" fill="#1296db" p-id="1822"></path></svg>