<?xml version="1.0" encoding="UTF-8" standalone="no"?>
<svg width="130px" height="130px" viewBox="0 0 130 130" version="1.1" xmlns="http://www.w3.org/2000/svg" xmlns:xlink="http://www.w3.org/1999/xlink">
    <!-- Generator: Sketch 40 (33762) - http://www.bohemiancoding.com/sketch -->
    <title>user</title>
    <desc>Created with Sketch.</desc>
    <defs></defs>
    <g id="Page-1" stroke="none" stroke-width="1" fill="none" fill-rule="evenodd">
        <g id="user" transform="translate(1.000000, 1.000000)" stroke="#979797" fill="#000000">
            <path d="M62.4443586,63.9961329 C83.0766345,63.9961329 99.8027034,49.6875891 99.8027034,32.0425378 C99.8027034,14.394006 83.0766345,0.0912628399 62.4443586,0.0912628399 C41.8129655,0.0912628399 25.084469,14.394006 25.0862345,32.0425378 C25.0860138,49.6875891 41.8129655,63.9961329 62.4445793,63.9961329 L62.4443586,63.9961329 Z M79.5698759,74.6495227 L48.4338759,74.6495227 C21.7818483,74.6495227 0.173903448,93.1271541 0.173903448,115.920822 L0.173903448,118.583686 C0.173903448,127.900036 21.7818483,127.908931 48.4338759,127.908931 L79.5696552,127.908931 C106.218814,127.908931 127.825655,127.564761 127.825655,118.583686 L127.825655,115.921208 C127.825655,93.1273474 106.220579,74.6499094 79.5696552,74.6499094 L79.5698759,74.6495227 Z" id="Shape"></path>
        </g>
    </g>
</svg>