<svg width="128" height="128" xmlns="http://www.w3.org/2000/svg"><g fill-rule="evenodd"><path d="M86.635 38.788c1.467 0 2.917.132 4.358.33C87.078 16.748 67.58.129 45.321.129 20.44.13.055 20.931.055 47.345c0 15.248 6.781 27.768 18.115 37.479l-4.527 16.701 15.82-9.733c5.666 1.376 10.207 2.787 15.858 2.787 1.42 0 2.829-.085 4.227-.22-.886-3.711-1.398-7.599-1.398-11.631 0-24.256 16.98-43.94 38.485-43.94zm-24.34-15.052c3.407 0 5.665 2.75 5.665 6.928 0 4.16-2.258 6.948-5.666 6.948-3.392 0-6.795-2.787-6.795-6.948 0-4.179 3.403-6.928 6.795-6.928zM30.616 37.612c-3.393 0-6.818-2.787-6.818-6.948 0-4.179 3.425-6.928 6.818-6.928 3.392 0 5.65 2.75 5.65 6.928 0 4.16-2.258 6.948-5.65 6.948z"/><path d="M127.945 82.06c0-22.196-18.108-40.29-38.448-40.29-21.537 0-38.5 18.094-38.5 40.29 0 22.235 16.963 40.287 38.5 40.287 4.508 0 9.058-1.396 13.584-2.787l12.414 8.34-3.404-13.874c9.087-8.36 15.854-19.447 15.854-31.967zm-50.928-6.947c-2.254 0-4.53-2.749-4.53-5.554 0-2.767 2.276-5.553 4.53-5.553a5.61 5.61 0 0 1 5.665 5.553 5.588 5.588 0 0 1-5.665 5.554zm24.897 0c-2.24 0-4.498-2.749-4.498-5.554 0-2.767 2.258-5.553 4.498-5.553 3.392 0 5.665 2.786 5.665 5.553a5.606 5.606 0 0 1-5.665 5.554z"/></g></svg>