<?xml version="1.0" standalone="no"?><!DOCTYPE svg PUBLIC "-//W3C//DTD SVG 1.1//EN" "http://www.w3.org/Graphics/SVG/1.1/DTD/svg11.dtd"><svg t="1503994712492" class="icon" style="" viewBox="0 0 1024 1024" version="1.1" xmlns="http://www.w3.org/2000/svg" p-id="9337" xmlns:xlink="http://www.w3.org/1999/xlink" width="64" height="64"><defs><style type="text/css"></style></defs><path d="M669.029188 317.395814c10.181291 0 20.235686 0.748037 30.23789 1.865487C672.100256 192.728466 536.831031 98.730629 382.414962 98.730629c-172.618362 0-314.03484 117.659747-314.03484 267.066545 0 86.2422 47.044337 157.061129 125.674313 211.988112l-31.406554 94.467535 109.75511-55.05285c39.302708 7.78122 70.80955 15.765055 110.010947 15.765055 9.849726 0 19.624747-0.481977 29.323017-1.243317-6.144182-20.996197-9.69827-42.982954-9.69827-65.792449C402.040732 428.732551 519.845498 317.395814 669.029188 317.395814zM500.167537 232.256738c23.639342 0 39.302708 15.550161 39.302708 39.185464 0 23.536043-15.66439 39.300075-39.302708 39.300075-23.535984 0-47.146672-15.765055-47.146672-39.300075C453.021889 247.806899 476.632577 232.256738 500.167537 232.256738zM280.402504 310.7433c-23.537007 0-47.300174-15.765055-47.300174-39.300075 0-23.635303 23.76419-39.185464 47.300174-39.185464 23.53496 0 39.200373 15.550161 39.200373 39.185464C319.602877 294.978245 303.937464 310.7433 280.402504 310.7433z" p-id="9338"></path><path d="M955.617831 562.14712c0-125.543298-125.622123-227.882104-266.733643-227.882104-149.41292 0-267.090791 102.338806-267.090791 227.882104 0 125.770472 117.677871 227.879034 267.090791 227.879034 31.278636 0 62.837668-7.896854 94.243199-15.765055l86.119862 47.170323-23.612735-78.473259C908.675829 695.672206 955.617831 632.965026 955.617831 562.14712zM602.306891 522.858302c-15.638806 0-31.431114-15.549138-31.431114-31.416524 0-15.651468 15.792308-31.405267 31.431114-31.405267 23.73963 0 39.302708 15.754822 39.302708 31.405267C641.609599 507.309164 626.04652 522.858302 602.306891 522.858302zM775.027587 522.858302c-15.538518 0-31.201884-15.549138-31.201884-31.416524 0-15.651468 15.66439-31.405267 31.201884-31.405267 23.535984 0 39.300661 15.754822 39.300661 31.405267C814.329272 507.309164 798.563571 522.858302 775.027587 522.858302z" p-id="9339"></path></svg>