<svg width="128" height="128" xmlns="http://www.w3.org/2000/svg"><path d="M78.527 116.793c.178.008.348.024.527.024h40.233c4.711-.005 8.53-3.677 8.534-8.21V18.895c-.004-4.532-3.823-8.204-8.534-8.209H79.054c-.179 0-.353.016-.527.024V0L0 10.082v107.406l78.527 10.342v-11.037zm0-101.362c.174-.024.348-.052.527-.052h40.233c2.018 0 3.659 1.578 3.659 3.52v89.713c-.003 1.942-1.64 3.517-3.659 3.519H79.054c-.179 0-.353-.028-.527-.052V15.431zM30.262 75.757l-18.721-.46V72.37l11.3-16.673v-.148l-10.266.164v-4.51l17.504-.44v3.264L18.696 70.76v.144l11.566.176v4.678zm9.419.231l-5.823-.144V50.671l5.823-.144v25.461zm22.255-11.632c-2.168 1.922-5.353 2.76-9.02 2.736-.702.004-1.402-.04-2.097-.131v9.303l-5.997-.148V50.743c1.852-.352 4.473-.647 8.218-.743 3.838-.096 6.608.539 8.48 1.913 1.807 1.306 3.032 3.5 3.032 6.112s-.926 4.833-2.612 6.331h-.004zM53.36 54.45c-.856-.01-1.71.083-2.541.275v7.682c.523.116 1.167.152 2.06.152 3.301-.004 5.36-1.614 5.36-4.314 0-2.425-1.772-3.843-4.875-3.791l-.004-.004zm39.847-37.066h9.564v3.795h-9.564v-3.795zm-9.568 5.68h9.564v3.8h-9.564v-3.8zm9.568 6.216h9.564v3.799h-9.564V29.28zm0 12h9.564v3.794h-9.564V41.28zm-9.568-6.096h9.564v3.795h-9.564v-3.795zm9.472 47.064c2.512 0 4.921-.96 6.697-2.67 1.776-1.708 2.773-4.026 2.772-6.442l-1.748-15.263c0-5.033-2.492-9.112-7.725-9.112-5.232 0-7.72 4.079-7.72 9.112l-1.752 15.263c-.001 2.417.996 4.735 2.773 6.444 1.777 1.71 4.187 2.669 6.7 2.668h.003zm-3.135-16.75h6.27v12.743h-6.27V65.5z"/></svg>