<?xml version="1.0" standalone="no"?><!DOCTYPE svg PUBLIC "-//W3C//DTD SVG 1.1//EN" "http://www.w3.org/Graphics/SVG/1.1/DTD/svg11.dtd"><svg t="1526543893110" class="icon" style="" viewBox="0 0 1024 1024" version="1.1" xmlns="http://www.w3.org/2000/svg" p-id="1927" xmlns:xlink="http://www.w3.org/1999/xlink" width="200" height="200"><defs><style type="text/css"></style></defs><path d="M967.991 307.965c0-0.131 0-0.195 0.065-0.262 0.527-0.927 0.921-1.849 1.255-2.837 0.262-0.527 0.462-0.991 0.66-1.383 0.262-0.796 0.262-1.454 0.462-2.181 0.195-0.855 0.394-1.578 0.462-2.311 0.066-0.459 0-0.855 0-1.255 0.066-1.185 0.131-2.239 0-3.361-0.069-0.527-0.201-1.056-0.331-1.587-0.131-0.921-0.262-1.915-0.529-2.899-0.13-0.463-0.396-0.86-0.527-1.325-0.327-1.053-0.724-2.045-1.187-3.028 0-0.070-0.065-0.138-0.065-0.202-0.262-0.462-0.529-0.855-0.855-1.318-0.529-0.789-0.991-1.652-1.587-2.377-0.527-0.659-1.123-1.251-1.644-1.782-0.529-0.529-0.991-1.053-1.521-1.515-0.789-0.66-1.652-1.255-2.571-1.782-0.397-0.195-0.66-0.529-1.056-0.724l-0.394-0.201c0 0-0.070 0-0.135-0.066l-280.127-157.409c-0.131-0.069-0.262-0.135-0.462-0.268-0.724-0.327-1.385-0.595-2.11-0.921-0.724-0.331-1.515-0.659-2.311-0.926-0.459-0.131-0.921-0.198-1.383-0.262-1.057-0.331-2.045-0.529-3.102-0.659h-1.056c-1.187-0.066-2.305-0.066-3.494 0.066-0.462 0.065-0.927 0.195-1.324 0.262-1.053 0.13-2.045 0.331-3.167 0.659-0.529 0.202-0.988 0.397-1.451 0.595-0.991 0.397-1.849 0.724-2.837 1.255l-0.394 0.201-146.134 81.738-146.528-81.939c-0.921-0.529-1.914-0.789-2.834-1.187-0.463-0.195-0.927-0.394-1.454-0.595-1.123-0.327-2.174-0.529-3.297-0.66-0.332-0.065-0.723-0.195-1.123-0.262-1.251-0.13-2.507-0.13-3.693-0.065h-0.789c-1.187 0.13-2.311 0.326-3.433 0.659-0.397 0.131-0.724 0.131-1.057 0.198-0.918 0.331-1.71 0.723-2.636 1.123-0.595 0.13-1.255 0.396-1.849 0.724-0.131 0.066-0.327 0.131-0.529 0.268l-280.587 157.61c-0.459 0.262-0.789 0.595-1.117 0.855-0.86 0.462-1.782 1.056-2.578 1.717l-1.581 1.578c-0.527 0.595-1.123 1.123-1.587 1.717-0.66 0.724-1.123 1.653-1.649 2.443-0.268 0.462-0.595 0.789-0.795 1.187-0.066 0.065-0.066 0.195-0.066 0.268-0.529 0.921-0.855 1.914-1.187 2.834-0.195 0.529-0.462 0.99-0.594 1.521-0.262 0.723-0.327 1.513-0.463 2.369-0.13 0.731-0.327 1.389-0.394 2.115v1.849c0 0.921-0.065 1.782 0 2.701 0.066 0.595 0.262 1.255 0.394 1.849 0.138 0.927 0.268 1.782 0.529 2.643 0.268 0.524 0.463 0.921 0.66 1.451 0.397 0.99 0.795 1.98 1.255 2.837 0 0.066 0.069 0.13 0.069 0.262 0.131 0.131 0.327 0.262 0.394 0.527 0.86 1.383 1.849 2.704 2.97 3.891 0.396 0.396 0.789 0.789 1.251 1.187 0.991 0.926 2.11 1.717 3.297 2.571 0.397 0.268 0.795 0.595 1.255 0.86 0.201 0.13 0.331 0.13 0.396 0.195l125.814 66.566-109.319 52.78c-0.397 0.131-0.789 0.462-1.187 0.66-0.789 0.462-1.521 0.855-2.18 1.383-0.66 0.397-1.187 0.927-1.776 1.454-0.595 0.524-1.187 0.988-1.652 1.578-0.595 0.66-1.123 1.385-1.653 1.981-0.327 0.396-0.659 0.73-0.921 1.123-0.135 0.065-0.201 0.332-0.331 0.529-0.397 0.723-0.79 1.521-1.187 2.18-0.327 0.724-0.66 1.383-0.921 1.98-0.268 0.724-0.397 1.385-0.66 2.112-0.135 0.927-0.332 1.587-0.462 2.378-0.131 0.789-0.131 1.451-0.198 2.115-0.069 0.855-0.135 1.644-0.135 2.305 0 0.86 0.135 1.518 0.268 2.245 0.066 0.789 0.195 1.652 0.327 2.377 0.135 0.659 0.332 1.251 0.595 1.98 0.268 0.855 0.529 1.652 0.927 2.441 0.065 0.262 0.13 0.397 0.195 0.66 0.131 0.195 0.332 0.397 0.462 0.66 0.855 1.451 1.717 2.969 2.905 4.288 0.262 0.262 0.459 0.659 0.79 0.927 1.251 1.318 2.571 2.441 4.084 3.556l141.449 93.949c-0.394 1.653-0.66 3.434-0.66 5.21v139.74c0 0.393 0.131 0.789 0.131 1.183 0.069 1.187 0.135 2.311 0.332 3.366 0.13 0.789 0.396 1.383 0.659 2.173 0.198 0.796 0.397 1.389 0.66 2.181 0.268 0.789 0.66 1.383 0.99 2.045 0.327 0.659 0.66 1.389 1.124 2.050 0.393 0.659 0.918 1.185 1.383 1.782 0.529 0.525 0.921 1.183 1.451 1.776 0.789 0.663 1.652 1.389 2.507 2.050 0.397 0.262 0.66 0.66 1.056 0.789l0.066 0.131 271.089 185.457c0.459 0.262 1.053 0.524 1.581 0.789 0.527 0.397 1.056 0.66 1.518 0.921 0.855 0.397 1.71 0.795 2.638 1.056 0.397 0.131 0.855 0.268 1.318 0.397 0.331 0.13 0.659 0.262 0.99 0.262 1.71 0.397 3.426 0.66 5.21 0.66v0.13c0.066-0.13 0.066-0.262 0.066-0.262 1.782 0 3.498-0.262 5.15-0.66 0.394 0 0.66-0.13 1.053-0.262 0.463-0.135 0.927-0.268 1.318-0.396 0.927-0.268 1.782-0.66 2.578-1.057 0.524-0.262 1.053-0.527 1.515-0.789 0.527-0.397 1.123-0.66 1.518-0.927 0.066 0 0.131 0 0.131-0.13l271.085-185.451c0.462-0.268 0.795-0.66 1.187-0.927 0.789-0.66 1.652-1.318 2.311-1.914 0.595-0.66 1.056-1.318 1.515-1.782 0.397-0.66 0.927-1.187 1.389-1.782 0.394-0.66 0.724-1.383 1.053-2.045 0.397-0.66 0.795-1.318 1.056-2.045 0.332-0.795 0.529-1.383 0.724-2.18 0.201-0.789 0.462-1.383 0.595-2.174 0.268-1.187 0.331-2.311 0.396-3.497 0-0.262 0.131-0.66 0.131-1.057v-139.667c0-1.782-0.262-3.557-0.66-5.147l141.514-94.015c1.451-1.053 2.837-2.239 4.093-3.493 0.262-0.332 0.459-0.731 0.724-0.991 1.185-1.318 2.11-2.774 2.969-4.288 0.131-0.195 0.262-0.397 0.394-0.66 0.131-0.195 0.131-0.396 0.268-0.595 0.394-0.855 0.66-1.652 0.921-2.507 0.268-0.724 0.396-1.318 0.66-1.914 0.13-0.796 0.268-1.521 0.268-2.377 0.13-0.724 0.262-1.383 0.262-2.181 0-0.789 0-1.513-0.066-2.305-0.066-0.795-0.066-1.389-0.195-2.18-0.138-0.724-0.397-1.451-0.529-2.174-0.268-0.795-0.396-1.518-0.723-2.245-0.268-0.66-0.595-1.251-0.86-1.846-0.394-0.855-0.789-1.587-1.318-2.377-0.131-0.131-0.131-0.397-0.262-0.529-0.268-0.394-0.659-0.724-0.926-1.057-0.529-0.723-1.057-1.383-1.653-2.045-0.524-0.594-1.053-1.056-1.644-1.515-0.529-0.529-1.187-1.057-1.782-1.454-0.723-0.595-1.518-1.054-2.311-1.451-0.393-0.198-0.789-0.595-1.187-0.724l-109.249-52.78 125.744-66.501c0.131-0.131 0.262-0.131 0.397-0.262l1.187-0.795c1.318-0.855 2.441-1.649 3.494-2.704 0.396-0.332 0.796-0.724 1.185-1.123 1.187-1.255 2.181-2.571 2.97-4.026 0.193-0.063 0.33-0.194 0.461-0.326v0zM666.688 605.44l-111.431-72.703 225.632-121.585 103.18 49.811-217.38 144.476zM351.596 605.44l-217.447-144.477 103.185-49.811 225.627 121.585-111.364 72.704zM351.467 165.795l109.98 61.618-224.047 130.301-117.237-61.951 231.306-129.967zM509.143 504.043l-222.859-120.143 222.859-129.506 222.925 129.506-222.925 120.143zM556.779 227.349l109.977-61.62 231.372 129.968-117.168 61.951-224.176-130.301zM338.404 653.404c0.262 0.131 0.595 0.268 0.921 0.397 1.318 0.789 2.643 1.383 4.093 1.914 0.595 0.262 1.185 0.529 1.914 0.789 1.914 0.529 3.89 0.796 5.876 0.796 0.065 0 0.13 0.131 0.262 0.131v0 0c0.065 0 0.13-0.131 0.262-0.131 1.984 0 3.961-0.268 5.875-0.796 0.66-0.262 1.255-0.527 1.849-0.789 1.383-0.397 2.768-1.056 4.093-1.782 0.262-0.13 0.595-0.262 0.855-0.396l121.194-79.101v282.566l-223.985-153.061v-101.534l76.797 50.997zM756.672 703.939l-223.982 153.060v-282.563l121.194 79.101c0.332 0.135 0.595 0.268 0.86 0.396 1.318 0.789 2.704 1.383 4.085 1.915 0.662 0.13 1.187 0.396 1.782 0.659 1.914 0.529 3.961 0.796 5.939 0.796 0.066 0 0.131 0.131 0.262 0.131v0 0c0 0 0.070-0.131 0.138-0.131 2.043 0 4.084-0.268 6.070-0.926 0.66-0.131 1.255-0.397 1.776-0.66 1.454-0.529 2.839-1.187 4.093-1.914 0.332-0.268 0.66-0.268 0.927-0.397l76.855-50.997v101.533h-0.001zM756.672 703.939z" p-id="1928"></path></svg>